<svg id="Layer_1" data-name="Layer 1" xmlns="http://www.w3.org/2000/svg" xmlns:xlink="http://www.w3.org/1999/xlink" viewBox="0 0 393.28 103.89"><defs><style>.cls-1{fill:none;}.cls-2{clip-path:url(#clip-path);}.cls-3{fill:#004d6d;}.cls-4{fill:#00abe6;}</style><clipPath id="clip-path"><rect class="cls-1" x="7.21" y="8.61" width="377.38" height="87.06"/></clipPath></defs><title>Artboard 1</title><g class="cls-2"><path class="cls-3" d="M355.7,81.43q-3,9-9.71,9c-2.11,0-4.06-1.11-5.85-3.35A28.92,28.92,0,0,1,335.55,78a79.62,79.62,0,0,1-3-13.46,112,112,0,0,1-1.12-16.22,103.39,103.39,0,0,1,1.12-16.68,46.77,46.77,0,0,1,2.88-10.76,14.13,14.13,0,0,1,4.07-5.78,7.79,7.79,0,0,1,4.67-1.71,7.9,7.9,0,0,1,6.1,3.15,26.46,26.46,0,0,1,4.6,8.87,71.67,71.67,0,0,1,2.89,13.52,138.93,138.93,0,0,1,1,17.14q0,16.41-3,25.41M308.17,70.92a37.23,37.23,0,0,0,7.61,13.33,33.37,33.37,0,0,0,12.09,8.47,41.24,41.24,0,0,0,16,3,44.83,44.83,0,0,0,17.86-3.28,34.18,34.18,0,0,0,12.67-9.19A39.45,39.45,0,0,0,382,69a63,63,0,0,0,2.56-18.58,57.91,57.91,0,0,0-2.23-16.28,36.26,36.26,0,0,0-7-13.26,33,33,0,0,0-12.08-8.93Q356,8.62,345.59,8.62a44,44,0,0,0-15.89,2.82A34.25,34.25,0,0,0,317,19.91,39.09,39.09,0,0,0,308.56,34a57.41,57.41,0,0,0-3,19.43,54.57,54.57,0,0,0,2.63,17.53m-20-60.47v4.21L301,20.43,284,83.33,264.7,15.05l15.24-.39V10.45H233.71v3.94l5.91,4.07L261,94.23h25.34L305.8,21.48l5.65-7V10.45Zm-76.16,71q-3,9-9.72,9c-2.1,0-4.05-1.11-5.84-3.35a28.92,28.92,0,0,1-4.6-9.12,79.62,79.62,0,0,1-3-13.46,113.45,113.45,0,0,1-1.11-16.22,104.69,104.69,0,0,1,1.11-16.68,46.72,46.72,0,0,1,2.89-10.76,14,14,0,0,1,4.07-5.78,7.76,7.76,0,0,1,4.66-1.71,7.92,7.92,0,0,1,6.11,3.15,26.83,26.83,0,0,1,4.6,8.87,71.72,71.72,0,0,1,2.88,13.52,136.9,136.9,0,0,1,1,17.14q0,16.41-3,25.41M164.51,70.92a37.25,37.25,0,0,0,7.62,13.33,33.33,33.33,0,0,0,12.08,8.47,41.32,41.32,0,0,0,16,3,44.83,44.83,0,0,0,17.86-3.28,34.26,34.26,0,0,0,12.67-9.19A39.29,39.29,0,0,0,238.37,69a63,63,0,0,0,2.57-18.58,57.55,57.55,0,0,0-2.24-16.28,36.11,36.11,0,0,0-7-13.26,32.89,32.89,0,0,0-12.08-8.93q-7.35-3.28-17.72-3.28a44,44,0,0,0-15.89,2.82,34.28,34.28,0,0,0-12.74,8.47A39.21,39.21,0,0,0,164.91,34a57.17,57.17,0,0,0-3,19.43,54.85,54.85,0,0,0,2.62,17.53M123.28,15.05q7.36,0,10.57,5.58t3.22,14.25q0,11.42-3.28,16.48a10.73,10.73,0,0,1-9.59,5,8.27,8.27,0,0,1-2.49-.46,11.75,11.75,0,0,1-2.36-1V15.05Zm-36-4.6v4.34l7.48.79v71.3l-7.62,3.28v3.68H130V89.76l-10.63-.39V60.48a17.47,17.47,0,0,0,3.41,1,23.14,23.14,0,0,0,4.73.46,50.45,50.45,0,0,0,11.62-1.38,30.72,30.72,0,0,0,10.57-4.66,26,26,0,0,0,7.75-8.6q3-5.32,3-13.33a25.58,25.58,0,0,0-1.7-9.46A18.94,18.94,0,0,0,153.35,17a25.39,25.39,0,0,0-9.45-4.86A49.48,49.48,0,0,0,130,10.45Z"/><path class="cls-4" d="M57.37,81.43q-3,9-9.72,9c-2.1,0-4-1.11-5.84-3.35A28.92,28.92,0,0,1,37.21,78a79.62,79.62,0,0,1-3-13.46,113.41,113.41,0,0,1-1.12-16.22,104.55,104.55,0,0,1,1.12-16.68,46.72,46.72,0,0,1,2.89-10.76,14,14,0,0,1,4.07-5.78,7.76,7.76,0,0,1,4.66-1.71,7.92,7.92,0,0,1,6.11,3.15,26.64,26.64,0,0,1,4.59,8.87A70.89,70.89,0,0,1,59.4,38.88a136.9,136.9,0,0,1,1,17.14q0,16.41-3,25.41M9.83,70.92a37.25,37.25,0,0,0,7.62,13.33,33.25,33.25,0,0,0,12.08,8.47,41.29,41.29,0,0,0,16,3,44.83,44.83,0,0,0,17.86-3.28A34.26,34.26,0,0,0,76.08,83.2,39.29,39.29,0,0,0,83.69,69a63,63,0,0,0,2.56-18.58A57.55,57.55,0,0,0,84,34.09a36.26,36.26,0,0,0-7-13.26A33,33,0,0,0,65,11.9Q57.63,8.62,47.25,8.62a43.94,43.94,0,0,0-15.88,2.82,34.4,34.4,0,0,0-12.74,8.47A39.21,39.21,0,0,0,10.23,34a57.17,57.17,0,0,0-3,19.43A54.85,54.85,0,0,0,9.83,70.92"/></g></svg>