<svg id="Layer_1" data-name="Layer 1" xmlns="http://www.w3.org/2000/svg" xmlns:xlink="http://www.w3.org/1999/xlink" viewBox="0 0 993.86 597.06"><defs><style>.cls-1{fill:none;}.cls-2{clip-path:url(#clip-path);}.cls-3{fill:#fff;}.cls-4{fill:#534221;}.cls-5{fill:#ffc927;}.cls-6{fill:#ef5a32;}.cls-7{fill:#0c894a;}</style><clipPath id="clip-path" transform="translate(-43.07 -10.45)"><rect class="cls-1" y="-231.02" width="1080" height="1080"/></clipPath></defs><title>sao_geraldo</title><g class="cls-2"><path class="cls-3" d="M1000.36,173.05c3.23.77,6.45,1.57,9.63,2.39l26.94,7-15.25-23.26c-14.5-22.15-25.52-38.94-33.22-50.67,8.74-13.52,20.93-32.31,33.92-52.13l7.09-10.81-12.72-2.29c-2.37-.42-4.78-.84-7.27-1.26l5.43-9,8.69-14.36-16.68-1.89C747.52-12.6,631.76,66.06,519.81,142.13,411.43,215.77,309.06,285.33,77,237.44l-25-5.17,22.48,35.19c-3.48-.67-6.94-1.36-10.35-2.07L43.07,261l55,78.38c-4.13,7.74-15.19,27.14-40.89,65.58l-7.06,10.55,12.43,2.57C120,430,173.92,435.94,225.13,435.94a595.22,595.22,0,0,0,128.44-13.56C431,405.35,493.34,374,540.86,346.2c-2.18,6.06-4.32,11.86-6.5,17.33-12.17,30.42-13.09,60.29-2.53,82,8.32,17.06,23,28.77,43.76,34.8.34.1.69.18,1,.26-4.07,11.8-3.48,27,2.22,35.09a41,41,0,0,0,10.57,10.3c-.75,1.35-2.07,3.48-4.38,6.79l-1.54,2.2c-9.48,13.48-20.22,28.77-7.67,48.83C584.7,598,603,607.51,621.26,607.51c24.58,0,49.62-13.71,63.8-34.92,9.91-14.83,10.1-30.38,10.26-44.11a138.82,138.82,0,0,1,.89-16.7,44.47,44.47,0,0,0,21.31,5.52c35.5,0,60.44-19.94,70.56-56.25a34.41,34.41,0,0,0,11.13-3.5c2.69,10.26,8,21.35,12.69,25,6.08,4.71,13,5.07,18.11,5.34,4.86.25,6.18.53,6.72,1.42,1.89,3.1.76,8.46-.55,14.66-2.08,9.84-4.66,22.08,3.87,33.45,7.78,10.38,21.39,16.58,36.41,16.58,38,0,61.17-32.11,66.54-61.94,3.86-21.45-5.39-37.28-13.55-51.24A143.38,143.38,0,0,1,921.53,426c25.65-5.07,42.68-17.21,50.59-36.14C994.88,335.34,932.37,242,905.68,202.2l-2.34-3.49c-.86-1.28-3.33-5.17-6-9.28L893.27,183c33.28-.77,67.43,3.44,103.93,12.78l20.71,5.31L1006.57,183l-6.21-9.9" transform="translate(-43.07 -10.45)"/><path class="cls-4" d="M910.76,421.31c-5.78-.71-11.13-2.37-17.45-.89-12.71,3-19.78,13.45-30.7,18.24-19.47,8.56-28.47-1-45.94,2.58-4,.82-7.32,3-10.67,5.44.29,9.89,7.37,26.18,11.09,29.07,8.66,6.72,21.32-.06,26.89,9.06,7.95,13-8.64,32.12,2.86,47.44,6.65,8.87,18.23,13.15,29.58,13.15,31.72,0,53-26.59,58.12-54.9,5.19-28.88-17.52-46.06-23.78-69.19M879.64,531.16c32-5.9,42.71-42.62,37-66.72,25.05,12.83,4.78,75.85-37,66.72" transform="translate(-43.07 -10.45)"/><path class="cls-4" d="M675.06,494.5c-11.95-3.22-22.21-.08-33.93-1.13-16.28-1.45-21.28-10-33.91-14.1-7.31-2.36-13.15-1.67-19.65-2-6.15,9-6.76,26.42-1.8,33.41,9.83,13.88,20.3,6.75,6.22,26.92-9.77,14-19,25.49-9,41.6,7.65,12.25,23.79,19.74,38.19,19.74,22.54,0,44.39-12.7,56.7-31.11,14.23-21.29,5.09-44.4,11.7-66.29-4.52-2.86-9.13-5.57-14.55-7m-43.43,86.21c32-5.88,38.3-37.15,38.92-63.68,20.21,17.08,2.88,72.81-38.92,63.68" transform="translate(-43.07 -10.45)"/><path class="cls-5" d="M585,447.62a4.72,4.72,0,0,1-4.42,7.65c-48.67-6.41-22.57-97.22-4.76-134.91q-10.56,6.67-21.37,13.25c-4.15,11.31-8.11,22.82-12.21,33.08-16.29,40.74-14.92,90.64,35.68,105.37a42.2,42.2,0,0,0,9.79,1.58c6.51.34,12.34-.35,19.65,2,12.63,4.08,17.63,12.64,33.92,14.11,11.71,1,22-2.11,33.92,1.13,5.42,1.47,10,4.17,14.55,7,8.13,5.15,16,10.82,27.71,10.82,36.71,0,55.76-23.05,63.18-53.22-.56,0-1.14.05-1.73.05-28.11,0-48.32-14.14-61.81-40.43-11.47-22.39-16.09-50.57-20.17-75.44-1.1-6.69-2.13-13-3.26-18.92-3.24-17-8.27-44-8.44-70.9-34.36,20.95-68.42,44.4-104.39,67.31-10,55.33-15.59,106.59,4.16,130.44" transform="translate(-43.07 -10.45)"/><path class="cls-6" d="M880.61,179.16c-71.73,4.8-131.37,32.24-189.79,67.36.45,26.34,5.13,55.85,8.61,74.13,9.39,49.32,13.42,132.18,83.7,132.18,10.14,0,16.23-5.25,22.24-9.63,3.37-2.45,6.69-4.62,10.68-5.43,17.47-3.58,26.47,6,45.94-2.58,10.92-4.81,18-15.28,30.7-18.25,6.32-1.48,11.68.18,17.44.9a28.91,28.91,0,0,0,9.07-.15c109.59-20.95,6.25-170.44-23-214.24-1.95-2.94-10.66-16.76-15.57-24.29m-93.9,250.21c-57.14,26.41-79-96.66-74.43-164.92a2.74,2.74,0,0,1,5.46-.06c6.48,69.21,39.49,150.64,68.72,160a2.65,2.65,0,0,1,.25,4.94" transform="translate(-43.07 -10.45)"/><path class="cls-7" d="M1017.61,168.58l-3.13-4.77c-15.55-23.76-27.09-41.35-34.83-53.14l-1.44-2.17c9.77-15.12,23.19-35.83,37-56.85-6.64-1.2-13.16-2.24-19.62-3.22q5.53-9.21,12-19.88l1.78-2.94-3.42-.39c-256.25-29-370.67,48.76-481.34,124C414.65,223.88,310.81,294.42,75.23,245.8l-5.12-1.06,22.1,34.59c-9.75-1.65-19.67-3.49-29.82-5.58l45.54,64.93s-7.26,16.5-43.72,71.05c232,48,372-9.84,487.86-80.2q10.8-6.57,21.38-13.26c1.66-1,3.35-2.11,5-3.17,36-22.92,70-46.35,104.38-67.31,1.86-1.13,3.74-2.23,5.59-3.35,58.43-35.12,118.06-62.56,189.79-67.36,36.7-2.46,76.57,1,121.07,12.39-6.88-11-12.51-19.9-17.13-27.12,9.92,2,20,4.23,29.93,6.8Zm-35.74-12.8c-165.32-32.16-268.93,36.09-378.64,108.37-125.63,82.78-255.5,168.37-494.91,129l27.07-54.49L79.44,251.16c233.86,47,337.7-23.63,447.61-98.32C636.55,78.43,749.74,1.48,1002,29.22q-5.87,9.72-11,18.2c-17,28.14-27.09,45.17-27.09,45.17l-.71,1.19L976,113.1c7.21,11,17.74,27,31.73,48.39-8.61-2.13-17.27-4.05-25.82-5.71" transform="translate(-43.07 -10.45)"/><path class="cls-7" d="M364,288.44q-12.5-6.65-30.73-2.1-17.78,4.41-25.07,16.15t-2.5,28.35q3.4,11.88,10.74,18.56a32.87,32.87,0,0,0,16.45,8.31q9.17,1.64,21.52-1.45,12.15-3,19.08-9.28a29.18,29.18,0,0,0,9-15q2.11-8.68-1.3-20.59-4.73-16.38-17.21-23m-4.88,45.12c-1.81,3.59-5.14,6-10,7.2s-8.88.61-12.48-1.7-6.38-6.89-8.36-13.75-2-12.2-.14-15.88,5.11-6.08,9.66-7.21q7.13-1.77,12.55,1.59t8.22,13q3.26,11.38.54,16.77" transform="translate(-43.07 -10.45)"/><path class="cls-7" d="M250.16,301.1l-20.35,72.62,23.75-2.32,2.33-11.89,26.47-2.58,5,11.18,24.32-2.39L275.5,298.63Zm9,42.81L264.63,318l11.16,24.3Z" transform="translate(-43.07 -10.45)"/><path class="cls-7" d="M243.74,297.5l8-.79a4.61,4.61,0,0,1,.52-3.13,2.94,2.94,0,0,1,2.22-1.09,19.91,19.91,0,0,1,5.76,1c4.64,1.25,8.06,1.78,10.24,1.56a9.9,9.9,0,0,0,7.07-3.63q2.54-3.19,1.94-8.47c-.07-.6-.17-1.33-.29-2.15l-8.12.79a5,5,0,0,1-.57,3.32,3,3,0,0,1-2.14,1.09,20,20,0,0,1-6.43-1.06,57.34,57.34,0,0,0-6.08-1.47,15.81,15.81,0,0,0-3.45-.06,9.72,9.72,0,0,0-6.83,3.72,10.79,10.79,0,0,0-2.12,8.39c.06.58.15,1.24.28,2" transform="translate(-43.07 -10.45)"/><path class="cls-7" d="M213.78,332.68q-6.57-3.24-21.81-6.56c-4.12-.87-6.71-1.77-7.8-2.72a3.76,3.76,0,0,1-1.63-3,4.81,4.81,0,0,1,2.13-3.88c1.39-1.05,3.44-1.54,6.17-1.5,3.29.05,5.87.8,7.7,2.26s3.05,3.8,3.57,7l22-.84q-1.25-10.94-8.75-16.08t-22-5.36c-7.87-.12-14.07.7-18.64,2.44a22.48,22.48,0,0,0-10.3,7.42A17.56,17.56,0,0,0,160.88,322a16.63,16.63,0,0,0,6.35,13.66c4.3,3.63,11.56,6.57,21.75,8.88,6.24,1.37,10.19,2.79,11.89,4.26a6.27,6.27,0,0,1,2.48,4.93,6.4,6.4,0,0,1-2.79,5c-1.84,1.44-4.42,2.11-7.75,2-4.47-.08-7.9-1.53-10.23-4.43a15,15,0,0,1-2.8-7.7l-22.25.93a26.22,26.22,0,0,0,8.08,17.66q7.29,7,26.58,7.34c7.31.12,13.41-.76,18.25-2.65a24.87,24.87,0,0,0,11.41-8.47,21.29,21.29,0,0,0,4.26-12.38,18.56,18.56,0,0,0-2.83-10.44c-1.94-3.15-5.12-5.78-9.5-7.95" transform="translate(-43.07 -10.45)"/><path class="cls-7" d="M451,277.53l7.14,13L472,284l3.25,5.89a37.76,37.76,0,0,1-5.52,6.64,24.1,24.1,0,0,1-6.14,4.09q-7.37,3.5-13.84,1.07t-12.09-12.57c-3.51-6.37-4.69-11.67-3.59-15.91s3.93-7.42,8.49-9.58a15.7,15.7,0,0,1,8.58-1.7,12.68,12.68,0,0,1,7.19,3.42l18.26-12.82a31.28,31.28,0,0,0-11-7.41,26.15,26.15,0,0,0-12.39-1.48c-4.39.51-10.3,2.51-17.74,6q-11.57,5.48-16.76,11.74a29.62,29.62,0,0,0-7,17.81q-.36,9.74,5.24,20a42.44,42.44,0,0,0,13.62,15.27,32.8,32.8,0,0,0,17.92,5.76q9.63.24,21.63-5.45a62.5,62.5,0,0,0,15.69-10.08q6-5.49,12-15.68l-14.63-26.7Z" transform="translate(-43.07 -10.45)"/><polygon class="cls-7" points="682.76 129.98 660.5 81.26 638.97 89.74 668.52 154.4 723.59 132.68 716.32 116.75 682.76 129.98"/><path class="cls-7" d="M921.44,59.33Q911,50.06,892.17,50.38q-18.4.3-28.55,10c-6.74,6.48-10,15.47-9.8,26.93.14,8.21,2,15,5.59,20.42a31.34,31.34,0,0,0,13.81,11.77c5.64,2.43,12.72,3.56,21.24,3.44s15.36-1.71,20.93-4.74a30.62,30.62,0,0,0,12.66-12.47q4.31-7.94,4.09-20.26-.33-17-10.7-26.19M905,102c-2.7,3.07-6.56,4.66-11.58,4.74s-8.78-1.42-11.66-4.46-4.4-8.12-4.54-15.21,1.2-12.32,4-15.45a14.6,14.6,0,0,1,11.25-4.83q7.4-.12,11.75,4.37c2.94,3,4.48,7.81,4.6,14.44Q909,97.4,905,102" transform="translate(-43.07 -10.45)"/><path class="cls-7" d="M831.61,77.62a31.42,31.42,0,0,0-8.55-9.73,28.09,28.09,0,0,0-12-5.06c-4.54-.79-10.13-.49-16.79,1L760.48,71l17,68.44,33.83-7.26a57.31,57.31,0,0,0,13.1-4.77,24.61,24.61,0,0,0,8.89-7.65,27.56,27.56,0,0,0,5-11.71c.79-4.43.26-10.29-1.54-17.61a50.27,50.27,0,0,0-5.1-12.86M815.2,108.06a10.13,10.13,0,0,1-3.46,6.15c-1.76,1.41-5,2.61-9.79,3.64L796.38,119l-9.29-37.38,5.68-1.23q8.84-1.89,13.67,1.3c3.21,2.14,5.7,6.82,7.51,14.07q2,8.24,1.25,12.26" transform="translate(-43.07 -10.45)"/><polygon class="cls-7" points="480.89 255.69 472.77 244.09 503.26 225.69 494.86 213.68 464.38 232.07 457.84 222.71 490.7 202.87 481.9 190.3 429.4 221.97 470.58 280.88 524.04 248.63 514.7 235.27 480.89 255.69"/><path class="cls-7" d="M619.12,134.28,635,207.54l-21.68-9.27a31.31,31.31,0,0,0-5.47-1.57,25.89,25.89,0,0,0-5.38-.76,24.79,24.79,0,0,0-6.53,1.42,26.23,26.23,0,0,0,4.64-6.85,18.54,18.54,0,0,0,1.24-9.66,18.84,18.84,0,0,0-4.58-9.47,20.71,20.71,0,0,0-10.29-7,18.91,18.91,0,0,0-11.51.24q-5.65,1.89-14.2,8.1L530.59,195l46.55,55.35L595.63,237l-18.89-22.46,1.62-1.18a10.15,10.15,0,0,1,5.58-2c1.54-.07,3.85.56,6.94,1.83L614.94,223l20.8-15.1-.38-.17,20-11.6-3.51-11.63,22.57-13.11,9.77,8,20.73-12-64.17-45.57ZM580,194.12a33.76,33.76,0,0,1-4.24,4.28L567.94,204l-9.46-11.25,8.09-5.87c3.35-2.45,6-3.63,8.07-3.55a7.08,7.08,0,0,1,5.3,2.8,6.29,6.29,0,0,1,1.55,4,5.65,5.65,0,0,1-1.54,3.92m67.49-25.05-7.35-25.5,21.48,17.3Z" transform="translate(-43.07 -10.45)"/></g></svg>