<svg id="Layer_1" data-name="Layer 1" xmlns="http://www.w3.org/2000/svg" viewBox="0 0 256.39 121.75"><defs><style>.cls-1{fill:#231f20;}.cls-1,.cls-2,.cls-3,.cls-4{fill-rule:evenodd;}.cls-2{fill:#f58220;}.cls-3{fill:#e35f20;}.cls-4{fill:#fdb714;}</style></defs><title>sao_luiz</title><path class="cls-1" d="M13.94,124.77l1.49-11.57-3.37,0L10,117.6a33.6,33.6,0,0,0-1.54,3.69H8.34c0-1.25-.15-2.55-.2-3.63l-.41-4.42-3.29,0L1.61,124.83H3.86L5,120.05c.25-1.25.59-3,.93-4.55H6c0,1.56.15,3.16.28,4.42l.42,4.67h1.9l2.36-4.73c.64-1.26,1.32-2.87,2-4.38h0c-.3,1.69-.55,3.29-.76,4.55l-.67,4.76Z" transform="translate(-1.61 -3.13)"/><path class="cls-1" d="M26.52,122.4a5.17,5.17,0,0,1-2.38.58,2,2,0,0,1-1.6-.64,1.75,1.75,0,0,1-.27-.86c3.38.06,5.45-.73,5.44-2.85,0-1.55-1.23-2.5-2.91-2.49a5,5,0,0,0-4.87,5.22c0,2.2,1.24,3.54,3.66,3.53a7.69,7.69,0,0,0,3.11-.67l-.18-1.82Zm-1.15-3.75c0,.77-.94,1-2.85,1a2.09,2.09,0,0,1,1.94-1.74c.56,0,.91.29.91.73Z" transform="translate(-1.61 -3.13)"/><path class="cls-1" d="M46.7,124.59a18.77,18.77,0,0,1,.32-3.77l.8-4.42a9.82,9.82,0,0,0-2.77-.37,5.63,5.63,0,0,0-5.94,5.87c0,1.74,1,2.9,2.52,2.89a3.24,3.24,0,0,0,2.85-1.88h0c0,.61-.08,1.22-.07,1.69Zm-2-4.71c-.37,2.08-1.28,2.91-2,2.91s-1-.55-1-1.38c0-1.55,1.15-3.51,2.75-3.52.26,0,.48,0,.65,0l-.34,1.95Z" transform="translate(-1.61 -3.13)"/><path class="cls-1" d="M58.24,122.41a4.25,4.25,0,0,1-1.64.35A1.6,1.6,0,0,1,54.94,121a2.93,2.93,0,0,1,2.84-3.09,2.78,2.78,0,0,1,1.13.21l.59-1.91a5.62,5.62,0,0,0-1.73-.25,5.27,5.27,0,0,0-5.42,5.35,3.25,3.25,0,0,0,3.56,3.4,5.8,5.8,0,0,0,2.38-.44l0-1.86Z" transform="translate(-1.61 -3.13)"/><path class="cls-1" d="M67,124.65a5,5,0,0,0,4.94-5.3,3.32,3.32,0,0,0-3.61-3.44,5,5,0,0,0-4.94,5.3A3.3,3.3,0,0,0,67,124.65Zm.24-1.86c-.82,0-1.34-.64-1.35-1.64,0-1.29.72-3.37,2.15-3.38,1,0,1.3.81,1.31,1.59,0,1.43-.72,3.42-2.06,3.43Z" transform="translate(-1.61 -3.13)"/><path class="cls-1" d="M76.21,124a4.83,4.83,0,0,0,2.55.63c2.21,0,3.85-1.06,3.84-3a2.67,2.67,0,0,0-1.92-2.28c-.65-.35-1-.61-1-.95s.43-.74,1.08-.74a3.92,3.92,0,0,1,1.69.33l.55-1.73a4.12,4.12,0,0,0-2.12-.42c-2.16,0-3.67,1.14-3.66,2.92A2.56,2.56,0,0,0,79,121c.78.39,1.08.69,1.09,1.08s-.39.78-1.08.79a5.15,5.15,0,0,1-2.17-.6L76.21,124Z" transform="translate(-1.61 -3.13)"/><path class="cls-1" d="M89.48,114.41,89.19,116H88.11l-.34,1.91h1.08l-.63,3.29a7,7,0,0,0-.16,1.56c0,1.09.7,1.82,2.21,1.81a4.41,4.41,0,0,0,1.43-.18L92,122.4a3.94,3.94,0,0,1-.69,0,.62.62,0,0,1-.7-.69,4.67,4.67,0,0,1,.13-1.08l.55-2.82h1.77l.38-1.91H91.61L92,113.7l-2.55.71Z" transform="translate(-1.61 -3.13)"/><path class="cls-1" d="M103.64,115.89l-.71,3.9c-.3,1.64-1.16,2.69-2,2.69-.61,0-.83-.43-.83-1a5.7,5.7,0,0,1,.12-1.12l.8-4.51-2.46,0-.84,4.68a7.29,7.29,0,0,0-.17,1.55c0,1.6.84,2.34,2.18,2.33a3.67,3.67,0,0,0,2.84-1.57h0l-.17,1.38h2.21c.12-.78.25-1.69.46-2.73l1-5.67Z" transform="translate(-1.61 -3.13)"/><path class="cls-1" d="M112.77,124.24l.68-3.77c.29-1.65,1.15-2.82,2-2.83.6,0,.78.43.78,1a7.77,7.77,0,0,1-.08,1l-.89,4.63h2.38l.72-3.81c.29-1.69,1.11-2.78,1.93-2.78.56,0,.83.38.83,1a4,4,0,0,1-.13,1l-.79,4.6,2.38,0,.88-4.89a8.68,8.68,0,0,0,.16-1.43,2,2,0,0,0-2.08-2.24,3.41,3.41,0,0,0-2.85,1.62,1.82,1.82,0,0,0-2-1.59,3.46,3.46,0,0,0-2.89,1.57h0l.12-1.39-2.12,0c-.08.73-.21,1.64-.42,2.72l-1,5.68Z" transform="translate(-1.61 -3.13)"/><path class="cls-1" d="M135.18,121.82a5,5,0,0,1-2.34.58,1.91,1.91,0,0,1-1.6-.64,1.86,1.86,0,0,1-.27-.87c3.38.07,5.45-.72,5.44-2.84,0-1.56-1.27-2.5-2.95-2.49a5,5,0,0,0-4.87,5.21,3.26,3.26,0,0,0,3.66,3.53,7.26,7.26,0,0,0,3.11-.66l-.18-1.82Zm-1.1-3.76c0,.78-1,1-2.86,1a2.1,2.1,0,0,1,1.94-1.74c.56,0,.91.3.92.73Z" transform="translate(-1.61 -3.13)"/><path class="cls-1" d="M143.15,124.07l1.56-8.4h-2.47l-1.56,8.41,2.47,0Zm.64-9.48a1.48,1.48,0,0,0,1.55-1.52,1.23,1.23,0,0,0-1.35-1.25,1.47,1.47,0,0,0-1.5,1.48,1.23,1.23,0,0,0,1.26,1.29Z" transform="translate(-1.61 -3.13)"/><path class="cls-1" d="M162,121.85a4.3,4.3,0,0,1-1.69.36,1.6,1.6,0,0,1-1.65-1.77,2.92,2.92,0,0,1,2.84-3.09,2.73,2.73,0,0,1,1.12.21l.6-1.9a5.11,5.11,0,0,0-1.69-.25,5.28,5.28,0,0,0-5.47,5.35,3.27,3.27,0,0,0,3.57,3.4,5.8,5.8,0,0,0,2.38-.45v-1.86Z" transform="translate(-1.61 -3.13)"/><path class="cls-1" d="M170.76,124.1a5,5,0,0,0,5-5.31,3.32,3.32,0,0,0-3.57-3.44,5,5,0,0,0-5,5.31,3.32,3.32,0,0,0,3.57,3.44Zm.29-1.86c-.86,0-1.34-.65-1.35-1.64,0-1.3.68-3.38,2.11-3.39,1,0,1.34.82,1.35,1.6,0,1.42-.76,3.42-2.11,3.43Z" transform="translate(-1.61 -3.13)"/><path class="cls-1" d="M182.62,123.86l.67-3.77c.29-1.64,1.15-2.82,2-2.82.56,0,.78.43.78,1a3.87,3.87,0,0,1-.12.95l-.84,4.64h2.38l.67-3.82c.34-1.69,1.15-2.77,2-2.78.57,0,.83.39.83,1a4.54,4.54,0,0,1-.12,1l-.8,4.59h2.38l.88-4.9a7.39,7.39,0,0,0,.12-1.43c0-1.42-.74-2.24-2-2.23a3.53,3.53,0,0,0-2.89,1.61,1.76,1.76,0,0,0-2-1.59,3.49,3.49,0,0,0-2.89,1.58h0l.12-1.39h-2.12c-.08.74-.2,1.65-.41,2.73l-1,5.67Z" transform="translate(-1.61 -3.13)"/><path class="cls-1" d="M205.64,115.34l1.43,8.39h2.51l4.62-8.42h-2.77L209.77,119c-.43,1-.69,1.69-.9,2.3h-.09c0-.65-.13-1.26-.22-2.29l-.41-3.68Z" transform="translate(-1.61 -3.13)"/><path class="cls-1" d="M221.26,123.83a5,5,0,0,0,5-5.31,3.32,3.32,0,0,0-3.57-3.44,5,5,0,0,0-5,5.3,3.34,3.34,0,0,0,3.61,3.45Zm.29-1.87c-.86,0-1.34-.64-1.35-1.63,0-1.3.68-3.38,2.11-3.39,1,0,1.34.82,1.35,1.59,0,1.43-.76,3.43-2.11,3.43Z" transform="translate(-1.61 -3.13)"/><path class="cls-1" d="M236.87,121.45a4.24,4.24,0,0,1-1.64.36,1.62,1.62,0,0,1-1.66-1.77,2.93,2.93,0,0,1,2.8-3.09,2.81,2.81,0,0,1,1.17.21l.6-1.91a6,6,0,0,0-1.74-.25,5.27,5.27,0,0,0-5.42,5.36,3.25,3.25,0,0,0,3.52,3.4,6.17,6.17,0,0,0,2.42-.45l0-1.86Z" transform="translate(-1.61 -3.13)"/><path class="cls-1" d="M246.6,111.49l-2.07,2.65h1.73l1-1.48h.05l.65,1.47h1.6l-1.31-2.63Zm2.13,9.72a5,5,0,0,1-2.34.58,1.86,1.86,0,0,1-1.6-.64,1.75,1.75,0,0,1-.27-.87c3.34.07,5.41-.72,5.4-2.84,0-1.56-1.23-2.5-2.91-2.49a5,5,0,0,0-4.87,5.22c0,2.2,1.28,3.54,3.66,3.53a7.56,7.56,0,0,0,3.11-.67l-.18-1.82Zm-1.11-3.76c0,.78-.94,1-2.89,1a2.09,2.09,0,0,1,2-1.75c.56,0,.91.3.91.73Z" transform="translate(-1.61 -3.13)"/><path class="cls-1" d="M2.85,106.65c2.65,2,8.5,4,16.51,4.07,12.76-.07,23.37-6.75,23.3-19.65,0-6.92-4.43-11.61-11.5-15.3-4.91-2.7-8.42-4.75-8.44-8.17,0-3.21,3-6,8.71-6.07a23.24,23.24,0,0,1,10.74,2.41L46,53.62c-2.51-1.24-6.63-2.77-13.6-2.74C19.77,51,9.69,58.15,9.75,69.79c0,7.48,5.91,12.08,12,15.29,5.34,2.83,7.86,4.9,7.88,8.23,0,4.45-4.33,6.73-9.09,6.75A26.74,26.74,0,0,1,6.91,96.42L2.85,106.65Z" transform="translate(-1.61 -3.13)"/><path class="cls-1" d="M82.1,109.43a101.15,101.15,0,0,1,1.63-18.92l4.08-22a48.53,48.53,0,0,0-13.86-2C53.35,66.65,44,81.81,44.08,96c0,8.78,5.22,14.6,12.8,14.55,4.89,0,10.28-2.39,14.18-9.38h.18c-.16,3-.4,5.93-.48,8.36l11.34-.06ZM72.28,85.94c-1.85,10.31-6.54,14.57-10.22,14.59-3.46,0-5.08-2.83-5.1-6.94,0-7.83,5.75-17.64,13.71-17.68a16.21,16.21,0,0,1,3.25.33l-1.64,9.7Z" transform="translate(-1.61 -3.13)"/><path class="cls-1" d="M103.48,110.27c14.41-.08,24.91-11.39,24.83-26.67-.05-9.65-6.63-17.31-17.92-17.25-15,.08-25,12.16-25,26.66.06,10.38,7.23,17.31,18,17.26Zm1.42-9.49c-4.24,0-6.72-3.21-6.75-8.1,0-6.53,3.5-16.85,10.64-16.89,4.89,0,6.65,4,6.67,8,0,7.1-3.81,17-10.47,17Z" transform="translate(-1.61 -3.13)"/><polygon class="cls-1" points="126.75 106.05 161.33 105.86 163.35 95.03 141.11 95.15 149.77 48.06 137.43 48.13 126.75 106.05 126.75 106.05"/><path class="cls-1" d="M195.81,66.84l-3.57,19.49c-1.51,8.36-5.86,13.45-10.06,13.47-3.07,0-4.2-2.14-4.22-4.82a34.14,34.14,0,0,1,.58-5.59l4.16-22.48L170.37,67,166,90.41a38.68,38.68,0,0,0-.83,7.75c0,8,4.09,11.75,10.88,11.72,5,0,10.07-2.4,14.33-7.91l.17.08-.74,6.8,11-.06c.58-3.77,1.25-8.36,2.22-13.69l5.17-28.33-12.38.07Z" transform="translate(-1.61 -3.13)"/><path class="cls-1" d="M214.34,108.72l7.7-42-12.29.07-7.78,42,12.37-.06Zm2.45-44.85c4.19,0,7.77-2.77,7.74-7.48,0-4-2.76-6.44-6.65-6.41a7.35,7.35,0,0,0-7.49,7.48,6.06,6.06,0,0,0,6.31,6.41Z" transform="translate(-1.61 -3.13)"/><path class="cls-1" d="M216.07,108.71l34.88-.19,1.94-10-19.78.11.09-.18a105.42,105.42,0,0,0,10.16-9.74L256.61,74.3,258,66.51l-32.76.17-1.94,10,18-.09-.08.17A115.11,115.11,0,0,0,231,86.56l-13.59,14.66-1.35,7.49Z" transform="translate(-1.61 -3.13)"/><path class="cls-1" d="M91.38,56.93a20.16,20.16,0,0,1-13.85,7.6c-7.61.82-14.6-2.47-18.3-7.91,4.82,3.44,11.93,5.22,19.54,4.36a31.35,31.35,0,0,0,12.61-4Z" transform="translate(-1.61 -3.13)"/><path class="cls-2" d="M125.4,18l3.78,2.53,3.44,3.62s4.48,4.69-1.43,7.06c0,0-2.38,1.13-6.24-.06-4.11-1.32-7.54-2.68-7.54-2.68l-3.68.45-2.09-2.46c-.13-.21-1-8.9-1-8.9l1-2.91c.17-.17,3.06-2.27,3.06-2.27l3.59-.62c.09.08,4.91,3.43,4.91,3.43L125.4,18Z" transform="translate(-1.61 -3.13)"/><path class="cls-2" d="M110.51,9.61c1.43-.22,5.67-1.58,7.92-1.25a8.58,8.58,0,0,1,1.9.25c.39.13-.47-.13-1.9-.25a12.47,12.47,0,0,0-2.12.1,12.64,12.64,0,0,1,2.86.33,6.37,6.37,0,0,1,1.51.21,9,9,0,0,1,5.47,3.52,12,12,0,0,1,1.45,2.63,10,10,0,0,0-6.7-5.94l.22.09a8.74,8.74,0,0,1,4.16,2.61,3.15,3.15,0,0,1,.48.61l-.48-.61a11.34,11.34,0,0,0-1.73-1.37,7.3,7.3,0,0,0-1.31-.73,11.1,11.1,0,0,0-1.12-.51c-.22-.05-.48-.13-.74-.17h-.22a12,12,0,0,1,3.26,1.71,14.1,14.1,0,0,1,2.35,2.67,14.37,14.37,0,0,1,1.52,1.9,2.62,2.62,0,0,0,.35.69,1,1,0,0,1,.26.26A4.22,4.22,0,0,0,129.3,18c.43.26,1.09,1.38,1.26,1.34.52-.26.13-.09.95.34.13.09.52,0,.7.13a7.47,7.47,0,0,0,1.43.64c1,.51.91.9,1.91,1.33.13,0,1.3,1.12,1.3,1.12.66.95,1.27,1.59,1.1,2.37.78.95.18,2.08-.07,2.94a2.39,2.39,0,0,1-1.12,1.7,2,2,0,0,1-.52.43c-.17.09-.47.31-.69.44l0,0a.32.32,0,0,1-.39,0c-.09.05.26.22.22.17s-.22,0-.35,0c-.3.13-.48.3-.78.43s-.69.22-1,.48c0,.09-.26-.12-.26,0l-.21.26a2.14,2.14,0,0,0,.22.43c.3.44.18,1,.57,1.39.13.08.78-.18,1.25-.14.09,0,.05.22.09.39.39-.18.56,0,.48.17a.42.42,0,0,0,.21,0,1,1,0,0,0,.09.22c1.08-.26,1.94-1.13,3.24-1.83a5.08,5.08,0,0,0,.3-.83c0-.13.25-.3.3-.35,0-.25-.22-.34-.35-.47.56-.48,1.5-1.91.81-2.12.21-.57-.05-.78-.05-1.43a6,6,0,0,0-.71-3.07c-.31-.56-.61-1.08-1-1.6a4.3,4.3,0,0,0-.44-.56,14.91,14.91,0,0,0-5.21-4.12c-2-.95-2.82-1.2-3.74-3.06a16.21,16.21,0,0,0-4.18-4.82,11.52,11.52,0,0,0-6.2-2.13,22,22,0,0,0-7.7,1.12l-.39.39Z" transform="translate(-1.61 -3.13)"/><path class="cls-3" d="M127.4,19.39a46.06,46.06,0,0,1,4.31,3.91c1.61,1.73,2.83,4.14,2.23,5.45a3,3,0,0,1-1.46,1.82,4,4,0,0,0,1.46-1.82,4,4,0,0,0-.44-2.86,3.21,3.21,0,0,1-.33,3.34,3.58,3.58,0,0,1-1.38,1.26c-2.67,1.79-6.49.51-9.83-.81a25,25,0,0,0-5.55-1.53c3,.24,5.46,1.48,8,2.25s5.11,1.18,7,0a.74.74,0,0,1-.31.14c-2.11,1-4.8.37-7.4-.57-.43-.17-.91-.34-1.39-.51l1.39.51a19.91,19.91,0,0,0,3.55.84,7.84,7.84,0,0,0,2.25.08,12.85,12.85,0,0,0,1.6-.35c.31-.14.56-.31.87-.44.08-.09.17-.13.21-.22h0c-.52.05-2.59,1.27-5.1.55s-5.51-2-6.42-2.18a17.56,17.56,0,0,0-4.72-.49,3.76,3.76,0,0,0-1.6.27c-.56.91-.09.42-.82-.3-.35-.43.08-1.77-.14-1.82-.82-.21-.22-.08-.53-1,0-.13-.43-.48-.48-.74a15.87,15.87,0,0,0-.57-2c-.4-1.39,0-1.65-.32-2.86a10.29,10.29,0,0,1,0-2c.46-1.3.68-2.21,1.75-2.78.52-1.13,2.55-1.79,4-1.84a3.68,3.68,0,0,1,3,1.11,1.49,1.49,0,0,1,.61.52,5.83,5.83,0,0,1,.91.6l-.17,0a1.58,1.58,0,0,0,.26.35c0,.08,0,.08-.09.08s.39,0,.48.17c.22.39.44.74.61,1.12s0,.78.18,1.17c.09,0,.18,0,.26.13a2,2,0,0,1,.26.35,2.51,2.51,0,0,0,.48.08c.52,0,1.13.64,1.56.51.13,0,0-.95,0-1.38.05-.13.26.08.48.17-.22-.57-.09-.61.17-.39l-.09-.26c.09,0-.21-.31-.21-.31-1.14-1.46-1.58-2.58-2.92-3.79a5.88,5.88,0,0,0-1.35-.86c-.22-.08-.52-.3-.69-.38-.39,0-.22-.17-.39-.13-1.26-1-4.86-1.1-4.42-.54-1.08.14-1.17.44-2,.79a7.74,7.74,0,0,0-3.1,2.57,9.89,9.89,0,0,0-1,2,4.35,4.35,0,0,0-.26.74,15.11,15.11,0,0,0,.17,7.62,15.75,15.75,0,0,0,1.66,3.8c.18.3.44.64.66.94l.22.22.08.13,0,.08h0c3.46.64,1,.22,1.77.34h0l.35-.22a3.75,3.75,0,0,1,1.68-.48c2.9-.1,6.37,1.61,9.71,2.33s7-.26,8.08-2.64c.76-2.65-1.33-5.06-2.59-6.48a28.48,28.48,0,0,0-3.3-2.93l-1-.38Z" transform="translate(-1.61 -3.13)"/><path class="cls-2" d="M125.13,47.66l-2.84,3.61-4.57,3.09s-6.08,4.15-10.31-3.06a7.83,7.83,0,0,1-.73-6.44C108,41,109.28,38,109.28,38l-1-3.37,2.8-1.58c.26,0,11.39.33,11.39.33l4.2,1.36c.22.13,3.87,3.18,3.87,3.18l1.84,3.63c-.09,0-3.66,4.43-3.66,4.43-.21.13-3.58,1.71-3.58,1.71Z" transform="translate(-1.61 -3.13)"/><path class="cls-2" d="M133.28,34.24c.7,1.39,3.92,5.7,4.15,7.94a6.56,6.56,0,0,1,.19,1.91,11.89,11.89,0,0,0-.19-1.91,12.9,12.9,0,0,0-.83-2.2,8.18,8.18,0,0,1,.4,2.86,6.27,6.27,0,0,1,.19,1.55,5.61,5.61,0,0,1-3.65,5.17A12.24,12.24,0,0,1,130,50.62c3.54-.71,6.91-2.63,6.93-6.1l0,.26a5.28,5.28,0,0,1-2.66,4,6.07,6.07,0,0,1-.78.43l.78-.43a4.93,4.93,0,0,0,1.51-1.61,5.54,5.54,0,0,0,.77-1.26c.08-.39.3-.7.38-1.09s0-.47,0-.73l0-.26h0A8.17,8.17,0,0,1,135.25,47a11.81,11.81,0,0,1-3.36,2,12.59,12.59,0,0,1-2.38,1.31c-.38.09-.73,0-1,.22,0,0-.13.13-.26.26-.78.22-1.81.53-2.11,1.22-.3.39-1.81.88-1.68,1.09.52.69.13.18-.3,1-.09.09.09.61,0,.74-.47.56-.3.87-.64,1.52-.47,1.08-1.08.91-1.59,2a8,8,0,0,1-1.38,1.31c-1.3.57-2.11,1.14-3.37.75-1.3.66-3-.28-4.38-.8a5.48,5.48,0,0,1-2.69-1.71,6.42,6.42,0,0,1-.74-.73c-.13-.22-.52-.61-.7-.87h-.08c-.09-.08-.13-.21,0-.43-.09-.09-.3.26-.22.26s0-.26-.08-.43c-.22-.35-.48-.56-.7-1-.39-.34-.4-.82-.79-1.16-.13,0,.13-.26,0-.31l-.39-.3a5.66,5.66,0,0,1-.56.18c-.56.26-1.43,0-1.86.36-.09.08.35.9.31,1.38,0,.13-.3,0-.56,0,.3.48.13.61-.17.53a2.33,2.33,0,0,0,.13.21,3.16,3.16,0,0,0-.35.05c.53,1.29,1.88,2.5,3,4.18a8.69,8.69,0,0,0,1.26.51,3.45,3.45,0,0,1,.56.52c.35,0,.44-.22.65-.35.78.81,3,2.27,3.25,1.54a9.3,9.3,0,0,0,2.17.29,10.72,10.72,0,0,0,4.5-.11,11.46,11.46,0,0,0,2.25-.79c.25-.13.56-.22.77-.35a10.83,10.83,0,0,0,5-5.31c.94-2.13,1.11-3,3.7-3.61,2.29-.88,4.62-1.89,6.08-3.67a6.86,6.86,0,0,0,1.27-6.19,23,23,0,0,0-3.94-7.69l-.65-.43Z" transform="translate(-1.61 -3.13)"/><path class="cls-3" d="M123.63,49.57a39.58,39.58,0,0,1-4.79,4c-2.24,1.48-5.57,2.32-7.56,1.33a6.14,6.14,0,0,1-2.78-2,7.88,7.88,0,0,0,2.78,2,6.43,6.43,0,0,0,4.07.11,6.24,6.24,0,0,1-4.86-1.1,5.73,5.73,0,0,1-2-1.8c-2.78-3.19-1.51-6.88-.18-10a15.08,15.08,0,0,0,1.27-5c.1,2.72-1.23,4.94-1.91,7.32-.85,2.39-1,5,.86,7.27-.08-.13-.13-.26-.21-.39-1.71-2.46-1.11-5.1-.18-7.57.13-.39.3-.83.47-1.26l-.47,1.26a13,13,0,0,0-.67,3.46,5.33,5.33,0,0,0,.19,2.34,17.79,17.79,0,0,0,.66,1.77,8,8,0,0,0,.78,1,1.7,1.7,0,0,0,.3.3v0c-.13-.52-2.13-3-1.45-5.53.5-2.47,2-5.16,2.08-6a11,11,0,0,0,0-4.32,4,4,0,0,0-.53-1.52c-1.54-.41-.78-.09.26-.69.47-.26,2.29.29,2.29.12.17-.7,0-.22,1.3-.35.13,0,.52-.31.86-.31a16.54,16.54,0,0,0,2.47-.28c1.73-.13,2.12.25,3.72.11a23.94,23.94,0,0,1,2.64.29c1.87.6,3.17.94,4.21,2.06a7.31,7.31,0,0,1,3.62,4,2.27,2.27,0,0,1-.81,2.86,2.43,2.43,0,0,1-.56.56c-.22.09-.39.61-.73.83l-.05-.22c-.13.05-.34.18-.43.22s-.13,0-.17-.08.09.43-.13.43a10.25,10.25,0,0,1-1.47.44c-.47.26-1.17-.17-1.64,0a.73.73,0,0,1-.09.26c-.13,0-.3.13-.47.17s0,.39,0,.48c.13.52-.64,1.09-.38,1.56.13.13,1.38.12,2,.25.18,0-.08.26-.17.48.78-.1.91,0,.65.29l.39-.08c0,.08.35-.14.35-.14,1.85-1,3.41-1.23,4.83-2.44a3.9,3.9,0,0,0,.9-1.26c.09-.22.3-.48.39-.66,0-.38.13-.17,0-.38,1.07-1.14.28-4.64-.42-4.33-.52-1.08-1-1.21-1.69-2.07a15.14,15.14,0,0,0-4.35-3.26A25,25,0,0,0,124,33a9.11,9.11,0,0,0-1-.29,28.26,28.26,0,0,0-9.87-.82,18.83,18.83,0,0,0-4.58,1c-.39.09-.73.31-1.12.44l-.26.13-.13,0-.09,0,0,0h0c-.37,3-.12.82-.21,1.47h0l.05,0,.26.3a3.63,3.63,0,0,1,.83,1.59c.49,2.77-1.31,5.81-1.86,9a8.51,8.51,0,0,0,4.77,9.14c4,1.5,7-.38,8.91-1.47a17.66,17.66,0,0,0,3.57-3.09l.39-1Z" transform="translate(-1.61 -3.13)"/><path class="cls-4" d="M90.54,12.79l2.93-2L98,8.64s3.89-1.92,7.32.57A6.62,6.62,0,0,1,107,17.73c-3.08,5.85-1.19,3.9-1.19,3.9l.75,3.24L102.25,26l-10-.64-5-1.49-4.87-5c0-.21,1.58-3.81,1.58-3.81l6-1.68.69-.57Z" transform="translate(-1.61 -3.13)"/><path class="cls-2" d="M79.83,24.23c-.49-1.38-3-5.56-2.6-7.56a4.12,4.12,0,0,1,.3-1.69,7.13,7.13,0,0,0-.3,1.69,8.92,8.92,0,0,0,.27,2,7.14,7.14,0,0,1,.33-2.55A5,5,0,0,1,78,14.76c.6-1.95,2.63-3.39,5-4a21.18,21.18,0,0,1,3.72-.58c-3.63.32-7.48,1.64-8.33,4.41l.09-.21a6.29,6.29,0,0,1,3.66-3,7.51,7.51,0,0,1,.91-.31l-.91.31a9,9,0,0,0-1.9,1.18,5.64,5.64,0,0,0-1.07,1c-.18.3-.48.52-.69.83,0,.21-.17.43-.22.65v.21h0a8.32,8.32,0,0,1,2.41-2.52,15.37,15.37,0,0,1,3.84-1.41,22.54,22.54,0,0,1,2.55-.83,7.85,7.85,0,0,0,1-.09,1.05,1.05,0,0,1,.31-.18c.77-.13,1.77-.27,2.15-.75.35-.3,1.82-.57,1.73-.7-.43-.51-.13-.13.39-.69,0-.09-.05-.43.08-.52.48-.35.39-.57.73-1,.56-.65,1.08-.53,1.6-1.18a10.63,10.63,0,0,1,1.29-.74,5.19,5.19,0,0,1,2.9-.19c1.08-.35,2.47.38,3.55.8A5.3,5.3,0,0,1,105,6.53a2.92,2.92,0,0,1,.56.51c.09.13.44.43.57.61h.09a.22.22,0,0,1,0,.26c0,.08.21-.14.17-.13s0,.17,0,.3c.18.21.39.39.57.64s.35.61.65.87c.09-.05-.08.13,0,.17l.31.21a3,3,0,0,0,.47-.09c.43-.13,1.17.13,1.52-.09.08-.09-.31-.65-.31-.95,0-.09.26,0,.47,0-.26-.35-.13-.39.13-.31l-.08-.17h.26a25.56,25.56,0,0,0-2.44-2.84,9.66,9.66,0,0,0-1-.39c-.17-.08-.39-.3-.48-.34-.26,0-.34.09-.47.13-.61-.56-2.39-1.59-2.6-1.15a15.29,15.29,0,0,0-1.69-.34A11.39,11.39,0,0,0,98,3.19a9.79,9.79,0,0,0-1.9.31c-.22,0-.48.09-.65.14a9.75,9.75,0,0,0-5,3.1c-1.16,1.39-1.46,2-4,2.27a18.86,18.86,0,0,0-6.82,2.41,6,6,0,0,0-2.87,5,14.92,14.92,0,0,0,2.37,7.34l.66.43Z" transform="translate(-1.61 -3.13)"/><path class="cls-2" d="M92.65,11.4a36,36,0,0,1,4.71-2.54c2-.87,4.92-1.24,6.53-.47a5.47,5.47,0,0,1,2.3,1.55,6.84,6.84,0,0,0-2.3-1.55,7.23,7.23,0,0,0-3.42-.32,6.28,6.28,0,0,1,4.07,1.06,4.85,4.85,0,0,1,1.61,1.33c2.35,2.41,1.28,5.06.08,7.44A12.07,12.07,0,0,0,105,22.11c-.05-2.38,1.15-4.16,1.79-6a4.78,4.78,0,0,0-.72-5.4,1.91,1.91,0,0,1,.22.3c1.43,1.81.92,3.76.07,5.58a7,7,0,0,1-.43,1l.43-1a8.44,8.44,0,0,0,.63-2.55,3.85,3.85,0,0,0-.14-1.73c-.13-.44-.39-.87-.56-1.3l-.66-.77a1.49,1.49,0,0,0-.26-.22v0c.13.35,1.79,2.2,1.19,4s-1.8,3.91-1.92,4.64a8,8,0,0,0-.07,3.72,2.71,2.71,0,0,0,.49,1.34c1.07.48.21.36-.3.65s-2.21-.33-2.26-.16c-.16.65,0,.18-1.25.31-.17,0-.6.31-.91.27a17.69,17.69,0,0,0-2.55.23c-1.82.09-2.16-.29-3.85-.16-.22.05-2.81-.33-2.81-.33C89.3,24,88,23.63,87,22.55a5.63,5.63,0,0,1-3.09-3.88c-.27-1.3.42-1.82,1.41-2.43a3,3,0,0,1,.69-.48c.22,0,.48-.48.86-.61l0,.17.47-.17c.13-.05.13,0,.13.08s0-.34.22-.34c.56-.14,1-.23,1.55-.32s1.09.26,1.61.13a.6.6,0,0,1,.12-.22,4.09,4.09,0,0,1,.48-.13c.09-.13,0-.31.08-.39-.08-.39.74-.79.56-1.18-.09-.08-1.34-.16-2-.29-.13-.08.13-.22.26-.35-.78,0-.87-.08-.61-.25H89.5s-.39.09-.39.09c-2,.66-3.55.75-5.23,1.63a4.15,4.15,0,0,0-1.16,1,6.64,6.64,0,0,1-.56.52c0,.35-.22.13-.09.35-1.38.91-1.4,4.07-.54,3.81.31,1,.78,1.12,1.4,1.94a12.06,12.06,0,0,0,4.12,3.27c1,.42,1.91.85,2.91,1.19a10.17,10.17,0,0,0,1,.3,32.45,32.45,0,0,0,10.3.94,24.43,24.43,0,0,0,4.63-.89A8.7,8.7,0,0,0,107,25.6l.26-.09.13-.08h.08l0-.05h0c.37-2.68.08-.73.16-1.34h0v0l-.3-.31a2.87,2.87,0,0,1-.75-1.42c-.44-2.38,1.19-4.77,1.65-7.24s-1-5.36-3.93-6.77a10.22,10.22,0,0,0-7.74.48,17.65,17.65,0,0,0-3.54,2l-.43.7Z" transform="translate(-1.61 -3.13)"/><path class="cls-2" d="M86.89,42.33l-4.21-3.18-3.4-4.4s-4.19-5.43,3.63-8a11.87,11.87,0,0,1,7.1.09c4.33,1.41,7.93,2.86,7.93,2.86l3.9-.5,2.09,2.54c.13.22.74,10.25.74,10.25l-1.32,3.91c-.21.21-3.87,3.39-3.87,3.39l-4.63,1.24c-.08-.09-5.78-4.51-5.78-4.51-.17-.26-2.18-3.71-2.18-3.71Z" transform="translate(-1.61 -3.13)"/><path class="cls-2" d="M104.65,53c-1.82.49-7.43,3.12-10.46,2.87a8.6,8.6,0,0,1-2.55-.16,25.2,25.2,0,0,0,2.55.16,12.84,12.84,0,0,0,2.9-.4,14.76,14.76,0,0,1-3.77-.16,10.48,10.48,0,0,1-2.08-.16,8.93,8.93,0,0,1-6.69-4.9,13.74,13.74,0,0,1-1.27-3.75c.84,3.67,3.28,7.55,7.74,8.31l-.34-.13a8.39,8.39,0,0,1-5.08-3.57,9,9,0,0,1-.57-.9l.57.9a7.61,7.61,0,0,0,2,1.9,9.24,9.24,0,0,0,1.65,1,10.75,10.75,0,0,0,1.39.64,8.73,8.73,0,0,0,1,.21H92a14.27,14.27,0,0,1-4.13-2.36,13.4,13.4,0,0,1-2.53-3.84,11.83,11.83,0,0,1-1.57-2.59c-.13-.38-.09-.73-.26-1a1,1,0,0,1-.31-.3c-.31-.78-.61-1.81-1.4-2.2-.52-.34-1-1.81-1.3-1.72-.78.39-.18.08-1.17-.43-.13-.09-.7,0-.87-.17-.61-.47-1-.38-1.69-.77-1.17-.6-1-1.08-2.09-1.68a10.64,10.64,0,0,1-1.39-1.37c-.48-1.17-1-1.94-.54-2.94-.65-1.12.47-2.43,1.15-3.43a4,4,0,0,1,2-1.87,3.36,3.36,0,0,1,.77-.52c.22-.09.69-.35,1-.44v-.09a.44.44,0,0,1,.43.09c.09-.05-.26-.22-.21-.17s.26,0,.43,0c.39-.09.65-.31,1-.44s.9-.22,1.25-.48c0-.09.26.13.3,0l.35-.26a2.08,2.08,0,0,0-.18-.48c-.26-.43.08-1-.27-1.38-.13-.09-1,.18-1.51.09-.13,0,0-.21,0-.43-.52.18-.65,0-.52-.17l-.26.09v-.26c-1.39.27-2.68,1.14-4.49,1.84-.18.22-.43.61-.61.87a2.24,2.24,0,0,1-.56.39c0,.26.22.35.31.52-.91.53-2.59,2.09-1.81,2.35-.47.65-.21.91-.51,1.64a6.25,6.25,0,0,0-.19,3.68,8.94,8.94,0,0,0,.66,2,2.88,2.88,0,0,0,.3.69,12.81,12.81,0,0,0,5.66,5.29c2.47,1.2,3.47,1.54,4.13,4.14a17.2,17.2,0,0,0,4.5,6.9,11.57,11.57,0,0,0,8.1,2.68,25.92,25.92,0,0,0,10.2-2.74l.52-.61Z" transform="translate(-1.61 -3.13)"/><path class="cls-3" d="M84.63,40.61a51.08,51.08,0,0,1-4.44-4.83c-1.57-2-2.36-4.87-1.25-6.35a4.72,4.72,0,0,1,2.29-2,6.28,6.28,0,0,0-2.29,2,4.28,4.28,0,0,0-.28,3.25,3.94,3.94,0,0,1,1.41-3.78,5.55,5.55,0,0,1,2-1.35c3.5-1.83,7.53-.47,11,.89A24.9,24.9,0,0,0,99,30c-3.2-.19-5.8-1.52-8.49-2.33s-5.55-1.27-8,0a.79.79,0,0,1,.44-.14c2.67-1.09,5.58-.37,8.35.65a10.21,10.21,0,0,1,1.43.51l-1.43-.51a23.37,23.37,0,0,0-3.86-.93,8.43,8.43,0,0,0-2.55-.07,15.91,15.91,0,0,0-1.94.35c-.39.14-.74.31-1.13.49-.13,0-.21.13-.34.17h0c.56,0,3.33-1.32,6.06-.51,2.77.64,5.85,2.09,6.85,2.3a17,17,0,0,0,5.11.45,5.15,5.15,0,0,0,1.68-.22c.75-1.36.34-.45.87.29.35.43-.16,1.91,0,2,.87.17.26,0,.53,1.12,0,.13.48.52.48.78a14,14,0,0,0,.53,2.25c.4,1.6-.12,1.9.23,3.41a12.22,12.22,0,0,1-.07,2.52c-.64,1.69-.94,2.9-2.27,3.77-.73,1.56-3.32,2.7-5.05,2.93a3.89,3.89,0,0,1-3.77-1.37,2.77,2.77,0,0,1-.74-.64c-.13-.22-.78-.47-1-.86h.22c0-.13-.22-.39-.27-.52s0-.09.09-.13-.52,0-.57-.21c-.21-.52-.39-.95-.57-1.52s.22-1,0-1.55a.91.91,0,0,1-.31-.09c-.08-.17-.17-.3-.26-.47a3.75,3.75,0,0,0-.61-.09c-.6,0-1.26-.77-1.82-.59-.17.09-.16,1.3-.33,1.86,0,.17-.31-.13-.57-.21.14.73,0,.82-.34.52a3.32,3.32,0,0,1,0,.39c-.09,0,.21.39.21.39,1.18,2,1.49,3.54,3,5.22a8.56,8.56,0,0,0,1.6,1.11c.31.13.66.43.92.56.47,0,.21.17.47.08,1.52,1.34,6.15,1.23,5.67.41,1.39-.31,1.51-.79,2.64-1.4a11.09,11.09,0,0,0,3.91-3.83,14.11,14.11,0,0,0,1.2-2.65,3.87,3.87,0,0,0,.3-1,18.44,18.44,0,0,0,0-9,14.87,14.87,0,0,0-1.62-4,6.83,6.83,0,0,0-.65-.94l-.18-.26-.08-.13,0,0,0,0h0c-3.55-.63-1-.17-1.78-.33h0v0l-.39.17a3.72,3.72,0,0,1-1.81.49c-3.12.1-6.67-1.65-10.27-2.41s-8,.17-10,2.73c-1.81,3,.16,5.85,1.33,7.53a17.72,17.72,0,0,0,3.49,3.61l1.08.52Z" transform="translate(-1.61 -3.13)"/><path class="cls-1" d="M21.91,45.31a5.21,5.21,0,0,0,2.94.85c2.77,0,4.41-1.71,4.4-3.83,0-1.51-.84-2.46-2.36-3.27-1.3-.69-1.91-1.25-1.91-2.29a2.2,2.2,0,0,1,2.41-2,3.86,3.86,0,0,1,2.12.59l.56-1.25a4.38,4.38,0,0,0-2.51-.64c-2.25,0-4.15,1.45-4.14,3.66,0,1.3.88,2.29,2.44,3.1,1.3.68,1.83,1.37,1.83,2.28A2.43,2.43,0,0,1,25,44.82a4.49,4.49,0,0,1-2.6-.76l-.51,1.25Z" transform="translate(-1.61 -3.13)"/><path class="cls-1" d="M39.17,37l-.84,4.55c-.33,1.91-1.76,3.21-2.84,3.22s-1.43-.6-1.43-1.51a4.85,4.85,0,0,1,.16-1.3l.89-4.94H33.63l-1,5a11.15,11.15,0,0,0-.17,1.52c0,2,1.23,2.55,2.35,2.54A4,4,0,0,0,38,44.23h0l-.21,1.65h1.34c.09-.74.21-1.6.38-2.55L40.69,37Z" transform="translate(-1.61 -3.13)"/><path class="cls-1" d="M43.87,49.44l.71-3.81h0a3.84,3.84,0,0,0,1.91.42c2.94,0,5.13-3,5.12-6.09,0-1.6-.8-3.15-2.7-3.14a3.85,3.85,0,0,0-3.15,1.88h0l.2-1.69H44.54a31.08,31.08,0,0,1-.46,3.17l-1.73,9.27Zm1.39-7.54c.42-2.47,1.92-3.82,3.09-3.82s1.7,1.11,1.7,2c0,2.29-1.57,4.73-3.52,4.74a3,3,0,0,1-1.74-.47l.47-2.47Z" transform="translate(-1.61 -3.13)"/><path class="cls-1" d="M60.29,44.16a5.07,5.07,0,0,1-2.34.61,2,2,0,0,1-2-1.2,4,4,0,0,1-.18-1.68C59,42,61.66,41.34,61.64,39c0-1.26-.92-2.25-2.61-2.24-2.85,0-4.78,3-4.77,5.7,0,1.94,1,3.54,3.35,3.53a6.75,6.75,0,0,0,2.94-.71l-.26-1.12Zm-.12-5.11c0,1.39-1.85,1.7-4.23,1.71.38-1.39,1.46-2.82,2.88-2.83.78,0,1.35.38,1.35,1.12Z" transform="translate(-1.61 -3.13)"/><path class="cls-1" d="M65.36,45.73l.71-3.9c.38-2,1.54-3.64,2.84-3.65.17,0,.3,0,.43,0l.25-1.47a1.43,1.43,0,0,0-.43,0,3.18,3.18,0,0,0-2.67,2.13h0c.08-.69.16-1.3.2-1.94H65.31c-.08.83-.21,2-.42,3.16l-1,5.68Z" transform="translate(-1.61 -3.13)"/><path class="cls-1" d="M152.65,48l1.5-12.25h-2l-3.73,7.07A32.64,32.64,0,0,0,147,45.94h-.09a24.15,24.15,0,0,0-.28-3.07l-1-7h-1.9L140.58,48.1H142l1.65-6.63c.25-1.17.63-3,.89-4.16h0c.09,1.25.23,2.68.41,4.11L146,48h1.17l3.59-6.77c.65-1.26,1.33-2.73,1.89-4h.08c-.21,1.21-.5,3-.62,4.15L151.18,48Z" transform="translate(-1.61 -3.13)"/><path class="cls-1" d="M163.29,46.37a4.8,4.8,0,0,1-2.38.62,1.94,1.94,0,0,1-1.95-1.2,3.08,3.08,0,0,1-.18-1.64c3.24,0,5.84-.6,5.82-2.89A2.29,2.29,0,0,0,162,39c-2.82,0-4.79,3-4.78,5.7,0,1.94,1.06,3.54,3.4,3.53a6.48,6.48,0,0,0,2.89-.71l-.22-1.13Zm-.11-5.06c0,1.34-1.85,1.7-4.23,1.67.33-1.39,1.41-2.82,2.84-2.83.82,0,1.38.43,1.39,1.12v0Z" transform="translate(-1.61 -3.13)"/><path class="cls-1" d="M168.93,47.94l.71-3.89c.38-2,1.54-3.6,2.79-3.61h.44l.29-1.48a1.57,1.57,0,0,0-.43,0A3.25,3.25,0,0,0,170,41.06h0c.13-.69.17-1.3.25-1.91h-1.34c-.08.82-.21,2-.42,3.12L167.41,48Z" transform="translate(-1.61 -3.13)"/><path class="cls-1" d="M181,46.37a4.76,4.76,0,0,1-2,.48,2.06,2.06,0,0,1-2.22-2.32c0-2.12,1.4-4.38,3.7-4.39a3,3,0,0,1,1.51.34l.43-1.22a4.61,4.61,0,0,0-1.82-.38,5.59,5.59,0,0,0-5.38,5.83,3.17,3.17,0,0,0,3.4,3.4,5.36,5.36,0,0,0,2.55-.58L181,46.37Z" transform="translate(-1.61 -3.13)"/><path class="cls-1" d="M192.08,47.82a21.63,21.63,0,0,1,.32-4.07l.88-4.59a7.55,7.55,0,0,0-2.38-.33,6.14,6.14,0,0,0-6,6.35c0,1.64,1,2.89,2.52,2.88,1.26,0,2.47-.66,3.41-2.48h0c-.08.91-.16,1.73-.16,2.25Zm-1-5c-.42,2.33-1.89,4-3.14,4s-1.52-.94-1.53-1.94c0-2.42,1.84-4.81,4.13-4.82a3.05,3.05,0,0,1,1,.12l-.5,2.65Z" transform="translate(-1.61 -3.13)"/><path class="cls-1" d="M204.12,34.86l-.75,4.2a4.14,4.14,0,0,0-1.61-.29c-3.07,0-5.39,2.93-5.37,6,0,1.82.92,3.2,2.61,3.19a3.8,3.8,0,0,0,3.19-2h.05L202,47.77h1.38a22.36,22.36,0,0,1,.38-2.77l1.89-10.14Zm-1.6,8.58c-.37,2-1.75,3.3-2.92,3.3s-1.65-1.07-1.66-2.15c0-2.34,1.62-4.6,3.74-4.61a2.6,2.6,0,0,1,1.43.38l-.59,3.08Z" transform="translate(-1.61 -3.13)"/><path class="cls-1" d="M209.39,47.73l1.64-8.8h-1.52l-1.64,8.8Zm1.28-10.44a1.07,1.07,0,0,0,1.08-1.09.91.91,0,0,0-1-.94,1.05,1.05,0,0,0-1,1.08.86.86,0,0,0,.87.95Z" transform="translate(-1.61 -3.13)"/><path class="cls-1" d="M215.53,47.69l.8-4.28c.38-2.17,1.93-3.48,3-3.48s1.38.64,1.39,1.51a10.4,10.4,0,0,1-.08,1.16l-.93,5.07h1.48l1-5.15a7.75,7.75,0,0,0,.17-1.43A2.17,2.17,0,0,0,220,38.67a3.92,3.92,0,0,0-3.28,2h0l.2-1.73h-1.34c-.12.74-.25,1.56-.42,2.56l-1.13,6.23Z" transform="translate(-1.61 -3.13)"/><path class="cls-1" d="M227.26,47.63l.8-4.42c.37-2,1.84-3.34,3-3.34a1.27,1.27,0,0,1,1.35,1.42,10.07,10.07,0,0,1-.08,1.25l-1,5.07h1.51l1-5.15A9.2,9.2,0,0,0,234,41a2.12,2.12,0,0,0-2.17-2.37,3.79,3.79,0,0,0-3.15,1.74h-.05l1.05-5.63h-1.51l-2.4,12.91Z" transform="translate(-1.61 -3.13)"/><path class="cls-1" d="M241.06,47.77c2.95,0,4.88-2.83,4.86-5.56a3.39,3.39,0,0,0-3.48-3.66c-2.85,0-4.87,2.71-4.86,5.61A3.34,3.34,0,0,0,241,47.77Zm.13-1.21c-1.26,0-2-1-2.05-2.45,0-2,1.23-4.34,3.09-4.35a2.18,2.18,0,0,1,2.09,2.46c0,2-1.32,4.33-3.09,4.34Z" transform="translate(-1.61 -3.13)"/><path class="cls-1" d="M248.63,47.13a3.93,3.93,0,0,0,2.21.59c1.86,0,3.33-1,3.32-2.92a2.79,2.79,0,0,0-1.61-2.32c-.83-.43-1.26-.82-1.27-1.47a1.49,1.49,0,0,1,1.6-1.35,2.71,2.71,0,0,1,1.51.43l.43-1.17a3.7,3.7,0,0,0-1.82-.43c-1.9,0-3.2,1.19-3.19,2.75a2.65,2.65,0,0,0,1.57,2.24c1,.51,1.26.94,1.27,1.64A1.52,1.52,0,0,1,251,46.55a3.85,3.85,0,0,1-1.91-.55l-.43,1.13Z" transform="translate(-1.61 -3.13)"/></svg>