<svg id="Layer_1" data-name="Layer 1" xmlns="http://www.w3.org/2000/svg" xmlns:xlink="http://www.w3.org/1999/xlink" viewBox="0 0 355.39 92.14"><defs><style>.cls-1{fill:none;}.cls-2{fill:#004b8d;}.cls-3{clip-path:url(#clip-path);}.cls-4{fill:#fdb913;}</style><clipPath id="clip-path" transform="translate(0 0)"><rect class="cls-1" width="355.39" height="92.14"/></clipPath></defs><title>sesc</title><polygon class="cls-2" points="218.02 54.66 226.28 54.66 226.28 50.78 218.02 50.78 218.02 47.2 228.28 47.2 228.28 43.32 213.47 43.32 213.47 62.44 218.02 62.44 218.02 54.66"/><rect class="cls-2" x="333.77" y="47.83" width="4.65" height="14.61"/><rect class="cls-2" x="333.77" y="42.36" width="4.65" height="3.24"/><g class="cls-3"><path class="cls-2" d="M354.76,52.07a7.64,7.64,0,0,0-1.7-2.45,8.13,8.13,0,0,0-11.26,0,7.64,7.64,0,0,0-1.7,2.45,7.2,7.2,0,0,0-.63,3,7.11,7.11,0,0,0,.63,3,7.71,7.71,0,0,0,1.7,2.44,8.38,8.38,0,0,0,2.53,1.65,8.31,8.31,0,0,0,6.2,0,8.38,8.38,0,0,0,2.53-1.65,7.71,7.71,0,0,0,1.7-2.44,7.11,7.11,0,0,0,.63-3,7.2,7.2,0,0,0-.63-3m-4.05,4.66a3.75,3.75,0,0,1-.52,1.36,2.56,2.56,0,0,1-1,.91,4.65,4.65,0,0,1-3.44,0,2.56,2.56,0,0,1-1-.91,3.57,3.57,0,0,1-.51-1.36,9.78,9.78,0,0,1-.14-1.66,9.9,9.9,0,0,1,.14-1.67,3.63,3.63,0,0,1,.51-1.36,2.74,2.74,0,0,1,1-.92,4.4,4.4,0,0,1,3.44,0,2.74,2.74,0,0,1,1,.92,3.82,3.82,0,0,1,.52,1.36,9.92,9.92,0,0,1,.13,1.67,9.8,9.8,0,0,1-.13,1.66" transform="translate(0 0)"/><path class="cls-2" d="M227.11,55.15a8.08,8.08,0,0,0,.57,3.08,6.94,6.94,0,0,0,1.61,2.41,7.59,7.59,0,0,0,2.49,1.57,9,9,0,0,0,3.24.56c.36,0,.81,0,1.35-.07a12.94,12.94,0,0,0,2.11-.4V59.06a15,15,0,0,1-1.85.42,5.45,5.45,0,0,1-1.34,0,4.43,4.43,0,0,1-2.45-.85,3.73,3.73,0,0,1-1.4-2.17h11.29c0-.19,0-.35,0-.5s0-.32,0-.52v0a10.3,10.3,0,0,0-.44-3A7.37,7.37,0,0,0,241,49.88a6.68,6.68,0,0,0-2.4-1.77,9.33,9.33,0,0,0-6.74-.06,7.78,7.78,0,0,0-2.5,1.65,7.53,7.53,0,0,0-1.62,2.45,7.75,7.75,0,0,0-.59,3m5.57-3.48a3.48,3.48,0,0,1,2.42-.84,3.39,3.39,0,0,1,2.43.85,3.77,3.77,0,0,1,1.11,2.26h-7.2a4.05,4.05,0,0,1,1.24-2.27" transform="translate(0 0)"/><path class="cls-2" d="M245,60.39a7.26,7.26,0,0,0,2.18,1.4,12.6,12.6,0,0,0,2.41.75,12.05,12.05,0,0,0,2.25.22,8,8,0,0,0,1.73-.18V59.39a5.54,5.54,0,0,1-1.8,0,6.36,6.36,0,0,1-2.06-.62A4.78,4.78,0,0,1,248,57.39a4.28,4.28,0,0,1,0-4.69,5.09,5.09,0,0,1,1.71-1.42,6.42,6.42,0,0,1,2.05-.64,6.8,6.8,0,0,1,1.79,0V47.5a8,8,0,0,0-1.73-.18,11.27,11.27,0,0,0-2.25.22,12.6,12.6,0,0,0-2.41.75,7,7,0,0,0-3.75,3.61,8.41,8.41,0,0,0,0,6.29,7.14,7.14,0,0,0,1.57,2.2" transform="translate(0 0)"/><path class="cls-2" d="M256,60.49a8.2,8.2,0,0,0,2.53,1.65,8.13,8.13,0,0,0,8.73-1.65A7.91,7.91,0,0,0,269,58.05a7.26,7.26,0,0,0,.62-3,7.36,7.36,0,0,0-.62-3,7.83,7.83,0,0,0-1.71-2.45A7.91,7.91,0,0,0,264.77,48,8.13,8.13,0,0,0,256,49.62a7.64,7.64,0,0,0-1.7,2.45,7.2,7.2,0,0,0-.62,3,7.1,7.1,0,0,0,.62,3,7.71,7.71,0,0,0,1.7,2.44m2.36-7.09a3.63,3.63,0,0,1,.51-1.36,2.74,2.74,0,0,1,1-.92,3.76,3.76,0,0,1,1.72-.34,3.71,3.71,0,0,1,1.72.34,2.74,2.74,0,0,1,1,.92A3.48,3.48,0,0,1,265,53.4a9.92,9.92,0,0,1,.13,1.67,9.8,9.8,0,0,1-.13,1.66,3.42,3.42,0,0,1-.52,1.36,2.56,2.56,0,0,1-1,.91,3.85,3.85,0,0,1-1.72.33A3.91,3.91,0,0,1,260,59a2.56,2.56,0,0,1-1-.91,3.57,3.57,0,0,1-.51-1.36,9.78,9.78,0,0,1-.14-1.66,9.9,9.9,0,0,1,.14-1.67" transform="translate(0 0)"/><path class="cls-2" d="M294.24,49.45a6.59,6.59,0,0,0-2.35-1.52,8.91,8.91,0,0,0-3.32-.57,9.4,9.4,0,0,0-3,.43,6.58,6.58,0,0,0-2.2,1.2,6.78,6.78,0,0,0-2.22-1.2,9.44,9.44,0,0,0-3-.43,8.86,8.86,0,0,0-3.33.57,6.54,6.54,0,0,0-2.34,1.52,6.32,6.32,0,0,0-1.4,2.27,8.68,8.68,0,0,0-.46,2.82v7.9h4.74V54.29a5.55,5.55,0,0,1,.13-1.15,3.13,3.13,0,0,1,.47-1,2.64,2.64,0,0,1,.85-.77,2.68,2.68,0,0,1,1.34-.3,2.75,2.75,0,0,1,1.35.3,2.71,2.71,0,0,1,.87.77,3.34,3.34,0,0,1,.47,1,4.48,4.48,0,0,1,.15,1.15v8.15h4.73V54.29a5,5,0,0,1,.14-1.15,2.93,2.93,0,0,1,.46-1,2.75,2.75,0,0,1,.85-.77,2.68,2.68,0,0,1,1.34-.3,2.82,2.82,0,0,1,1.36.3,2.68,2.68,0,0,1,.86.77,2.94,2.94,0,0,1,.47,1,4.48,4.48,0,0,1,.15,1.15v8.15h4.69v-7.9a8.68,8.68,0,0,0-.46-2.82,6.32,6.32,0,0,0-1.4-2.27" transform="translate(0 0)"/><path class="cls-2" d="M311.05,49.88a6.68,6.68,0,0,0-2.4-1.77,9.33,9.33,0,0,0-6.74-.06,7.78,7.78,0,0,0-2.5,1.65,7.53,7.53,0,0,0-1.62,2.45,7.75,7.75,0,0,0-.58,3,8.12,8.12,0,0,0,.56,3.08,6.94,6.94,0,0,0,1.61,2.41,7.59,7.59,0,0,0,2.49,1.57,9,9,0,0,0,3.24.56c.36,0,.81,0,1.35-.07a14.36,14.36,0,0,0,2.11-.4V59.06a15,15,0,0,1-1.85.42,5.47,5.47,0,0,1-1.34,0,4.43,4.43,0,0,1-2.45-.85,3.73,3.73,0,0,1-1.4-2.17h11.29c0-.18,0-.35,0-.5s0-.32,0-.52v-.06a10.29,10.29,0,0,0-.44-3,7.37,7.37,0,0,0-1.38-2.56m-9.52,4.06a4.07,4.07,0,0,1,1.23-2.27,3.52,3.52,0,0,1,2.43-.84,3.35,3.35,0,0,1,2.43.85,3.77,3.77,0,0,1,1.11,2.26Z" transform="translate(0 0)"/><polygon class="cls-2" points="309.73 42.77 306.19 41.2 303.13 46.07 306.27 46.07 309.73 42.77"/><path class="cls-2" d="M322.53,47.39l-.5,0h-.74a10.45,10.45,0,0,0-3.29.48,7.46,7.46,0,0,0-2.45,1.32,5.72,5.72,0,0,0-1.54,2,5.86,5.86,0,0,0-.54,2.51v8.8h4.73V53.91a5.11,5.11,0,0,1,.11-1.14,2.52,2.52,0,0,1,.31-.76,1.94,1.94,0,0,1,.52-.51,5.6,5.6,0,0,1,.69-.37,5.66,5.66,0,0,1,1.19-.35,7.24,7.24,0,0,1,1.51-.14Z" transform="translate(0 0)"/><path class="cls-2" d="M328.6,47.54a12.6,12.6,0,0,0-2.41.75,7,7,0,0,0-3.75,3.61,8.41,8.41,0,0,0,0,6.29,7.14,7.14,0,0,0,1.57,2.2,7.26,7.26,0,0,0,2.18,1.4,12.6,12.6,0,0,0,2.41.75,12,12,0,0,0,2.24.22,8.09,8.09,0,0,0,1.74-.18V59.39a5.54,5.54,0,0,1-1.8,0,6.29,6.29,0,0,1-2.06-.62A4.78,4.78,0,0,1,327,57.39a4.23,4.23,0,0,1,0-4.69,5.05,5.05,0,0,1,1.7-1.42,6.56,6.56,0,0,1,2.06-.64,6.8,6.8,0,0,1,1.79,0V47.5a8.09,8.09,0,0,0-1.74-.18,11.24,11.24,0,0,0-2.24.22" transform="translate(0 0)"/><path class="cls-2" d="M275.67,79.56c-.41-3.42-2.79-5.42-7.61-5.42H266.9v3.68a7.7,7.7,0,0,1,2.83.48,2.41,2.41,0,0,1,1.32,2.23c-1.17-.14-2.48-.23-3.63-.26-4.52-.12-6.83,1.33-7.38,3.67V81.56c0-4.12-2.52-7.33-7.85-7.33-4.88,0-7.4,2.69-7.79,6.3-.62-3.56-3.19-6.48-8.13-6.48s-8.51,3.59-8.51,7.93v0c0,.11,0,.22,0,.32-1-1.64-3.24-2.53-6.48-3.23-3.86-.83-4.41-1.22-4.41-2.44v-.06c0-.9,1-1.61,2.87-1.61a10.13,10.13,0,0,1,3.1.58V71.7a20.33,20.33,0,0,0-3-.3c-4.57,0-7.82,2.23-7.82,5.6v0c0,3.69,2.9,4.72,7.4,5.67,3.74.8,4.09,1.33,4.09,2.37v0c0,1.09-1.21,1.75-3.22,1.75A10.22,10.22,0,0,1,214,84.63l-2.9,2.9a14.76,14.76,0,0,0,9.06,3c4.68,0,8-2,8.19-5.44,1.27,3,4.44,4.84,8.39,4.84l.78,0V86.41l-.71,0c-2.19,0-3.73-1-4.21-3h11.73v6.16h4.94V81.26c.09-1.52.69-3.32,2.91-3.32s2.87,1.8,3,3.32v8.36H260V86.28c.58,2.3,3,3.54,5.77,3.54a7,7,0,0,0,5.2-1.93v1.75h4.73V83.3c1.09,4.11,5.59,7.12,11.14,7.12h.56V86.76h-.26c-3.6,0-6.21-2.31-6.21-5.48v-.07c0-3,2.61-5.42,5.95-5.42h.52V72.16H287c-5.8,0-10.34,3.08-11.3,7.4m-43.12,1.2a3.65,3.65,0,0,1,3.72-3.24,3.5,3.5,0,0,1,3.63,3.24Zm38.51,3.45a3.41,3.41,0,0,1-3.24,2.58c-3.71.2-3.85-2.34-2.6-3.12,1.68-1,5.86-.45,5.86-.45a5.76,5.76,0,0,1,0,1" transform="translate(0 0)"/><path class="cls-2" d="M180.62,52a22.58,22.58,0,0,1,3.62.29v-10a51.56,51.56,0,0,0-7-.45c-17.54,0-30.77,10.5-30.77,24.54a22.73,22.73,0,0,0,.2,2.89c-2.55-4.37-8.25-6.6-16.42-8.29-10.34-2.09-11.77-3-11.56-5.29s3.66-4.16,8.85-4.16a29.08,29.08,0,0,1,11.69,2.63V43.71a42.44,42.44,0,0,0-12.44-1.94c-13.06,0-21.81,6.25-22.51,14.84v.24C101.1,48.35,93.75,42,81,42,65.79,42,55.37,53.12,55.37,66.65c0,.38,0,.75.05,1.12-2.84-6.29-10.32-9.19-20.48-11.4C23,53.81,21.31,52.64,21.31,49.91s3.06-4.83,7.8-4.74A19.64,19.64,0,0,1,36,46.5,126.79,126.79,0,0,1,45.5,36a47.43,47.43,0,0,0-16.33-2.76C15,33.26,5.07,40.35,5.07,51c0,8.18,4.29,11.91,11.78,14.46.4.12,1.57.48,2.26.71,2.57.75,5.46,1.41,8.65,2.09,11.69,2.51,12.67,4.62,12.67,6.94,0,2.74-3.25,4.37-8.7,4.37-6.23,0-12-1.83-18-5.73-3.09,4.18-6.28,8.77-8,11.59a54,54,0,0,0,25.73,6.68c15.2,0,24.75-6.58,25.2-17.32C59.81,84.61,68.78,91,80.93,91a42.79,42.79,0,0,0,11.2-1.45V79.16C87,80.64,84.8,80.8,81.8,80.64c-6-.3-11-3.7-12.35-9.65h36.43c.09-1.22.19-2,.19-3.3v-.18a35.06,35.06,0,0,0-.24-3.85c2.76,3.85,8.84,5.41,17.2,7.1,10.15,2.06,10.7,3.61,10.7,6,0,2.1-2.7,4.52-8.69,4.32a43.49,43.49,0,0,1-18.93-5.19v12A50,50,0,0,0,125,92.08c13.72,0,23.14-8,23.14-16.73,0-.21,0-.4,0-.61a25.68,25.68,0,0,0,12.64,12.69,37.35,37.35,0,0,0,15.95,3.49,45,45,0,0,0,7.54-.56V80.24a23.8,23.8,0,0,1-3.62.28c-10.16,0-18.39-6.39-18.39-14.27S170.46,52,180.62,52M69.45,62.73c1.21-6,5.38-9.91,11.78-9.91s10.56,4,11.47,9.91Z" transform="translate(0 0)"/><path class="cls-4" d="M127.77,0C81.89,0,48.23,31,36,46.51l2,.89c56.45-52.21,128.17-37.87,146.3-29,0,0-24.39-18.36-56.6-18.36M0,81.68a48.33,48.33,0,0,0,5.71,3.78A196.79,196.79,0,0,1,19.57,66.35c-.34-.12-2.87-.91-2.87-.91C11.17,69.73,4.41,76.85,0,81.68" transform="translate(0 0)"/></g></svg>