<?xml version="1.0" encoding="utf-8"?>
<!-- Generator: Adobe Illustrator 16.0.3, SVG Export Plug-In . SVG Version: 6.00 Build 0)  -->
<!DOCTYPE svg PUBLIC "-//W3C//DTD SVG 1.1//EN" "http://www.w3.org/Graphics/SVG/1.1/DTD/svg11.dtd">
<svg version="1.1" id="Capa_1" xmlns="http://www.w3.org/2000/svg" xmlns:xlink="http://www.w3.org/1999/xlink" x="0px" y="0px"
	 width="1000px" height="720.745px" viewBox="0 0 1000 720.745" enable-background="new 0 0 1000 720.745" xml:space="preserve">
<g>
	<defs>
		<rect id="SVGID_1_" width="1000" height="720.745"/>
	</defs>
	<clipPath id="SVGID_2_">
		<use xlink:href="#SVGID_1_"  overflow="visible"/>
	</clipPath>
	<path clip-path="url(#SVGID_2_)" fill="#164194" d="M288.793,218.307l-10.488,58.118c-0.949,5.229-5.704,9.525-10.949,9.525
		h-96.235c-17.141,0-23.807,5.719-27.155,23.822l-6.192,34.296h117.197c4.756,0,8.089,3.333,8.089,8.089v1.437l-10,56.206
		c-0.948,5.245-5.718,9.526-10.948,9.526H124.915l-23.347,132.441c-0.948,5.244-6.193,9.526-11.423,9.526H12.487
		c-4.756,0-7.615-3.333-7.615-7.615v-1.911l42.399-241.996c16.667-96.709,77.169-107.198,141.005-107.198
		c46.207,0,74.784,3.822,92.414,6.193c5.244,0.488,8.103,3.333,8.103,7.629V218.307z"/>
	<path clip-path="url(#SVGID_2_)" fill="#164194" d="M726.507,217.818l-10,58.118c-0.963,5.244-6.191,9.54-11.437,9.54h-96.235
		c-17.141,0-23.807,5.704-27.155,23.807l-6.191,34.784h117.196c4.757,0,8.104,3.334,8.104,8.089v1.437l-10.015,56.208
		c-0.948,5.243-5.719,9.525-10.948,9.525H562.628l-7.14,39.54c-0.475,3.822-0.949,6.681-0.949,9.54
		c0,10.948,5.704,14.281,19.526,14.281H670.3c4.756,0,8.089,3.334,8.089,8.104v1.422l-10.474,58.118
		c-0.962,5.719-4.771,8.577-10.962,9.54c-18.578,2.371-47.629,5.704-93.851,5.704c-55.732,0-106.709-20-106.709-82.413
		c0-7.615,0.963-15.719,2.385-24.296l26.207-149.583c16.667-96.221,73.836-106.709,141.005-106.709
		c46.207,0,75.272,3.333,92.888,5.718c5.244,0.474,7.629,2.859,7.629,7.629V217.818z"/>
	<path clip-path="url(#SVGID_2_)" fill="#164194" d="M998,222.114l-10.948,60.977c-0.948,5.718-4.296,9.051-10,9.051h-1.437
		c-19.053-1.911-39.066-4.296-66.222-4.296c-25.718,0-50.014,9.052-61.45,71.94l-9.052,49.066
		c-1.896,11.436-2.859,20.962-2.859,29.065c0,35.719,18.578,42.873,39.54,42.873c27.154,0,47.644-2.385,67.17-4.296h1.436
		c4.756,0,7.142,1.911,7.142,6.667v2.385l-10.948,60.977c-0.963,6.192-3.822,8.104-11.911,10.489
		c-13.348,4.281-37.643,8.563-67.658,8.563c-70.976,0-123.85-39.54-123.85-118.132c0-11.91,1.423-24.771,3.808-38.591l9.051-49.066
		c21.911-120.043,83.362-157.212,173.405-157.212c29.54,0,53.836,4.77,65.732,9.052c5.245,1.91,9.052,3.333,9.052,8.103V222.114z"/>
	<path clip-path="url(#SVGID_2_)" fill="#008BD2" d="M442.543,210.746c0.956-6.179-2.854-9.033-8.092-9.033h-78.05
		c-5.238,0-10.005,3.796-10.947,9.033l-14.874,84.48l105.828-49.596L442.543,210.746z"/>
	<path clip-path="url(#SVGID_2_)" fill="#164194" d="M323.901,339.907l-37.473,212.715c-0.942,4.768,1.912,9.533,7.621,9.533h78.05
		c7.136,0,10.475-4.296,11.432-9.533l46.197-262.311L323.901,339.907z"/>
	<path clip-path="url(#SVGID_2_)" fill="#164194" d="M296.783,640.92l-1.984,11.276c-0.181,0.993-0.903,1.714-1.895,1.714h-0.18
		c-3.608-0.27-13.802-1.173-20.297-1.173c-2.526,0-5.143,0.813-5.143,3.789c0,1.263,0.903,2.076,3.97,3.879l11.005,6.495
		c6.495,3.79,9.022,8.751,9.022,15.066c0,16.868-14.164,23.725-29.499,23.725c-7.397,0-13.171-0.993-17.772-2.345
		c-0.811-0.271-1.533-0.723-1.533-1.534v-0.271l1.894-11.096c0.181-0.992,0.993-1.803,2.075-1.803h0.18
		c3.699,0.359,13.261,1.352,18.042,1.352c3.609,0,6.586-1.262,6.586-5.322c0-1.354-0.902-2.346-3.518-4.06l-11.638-7.668
		c-5.232-3.427-7.758-9.291-7.758-14.884c0-16.238,12.72-21.109,27.064-21.109c7.126,0,16.508,1.173,20.026,2.255
		c0.722,0.271,1.353,0.632,1.353,1.443V640.92z"/>
	<path clip-path="url(#SVGID_2_)" fill="#164194" d="M350.367,639.838l-1.894,11.006c-0.181,0.991-1.173,1.805-2.165,1.805h-18.223
		c-3.247,0-4.51,1.082-5.142,4.51l-1.172,6.585h22.191c0.903,0,1.534,0.632,1.534,1.533v0.271l-1.895,10.645
		c-0.18,0.993-1.082,1.804-2.074,1.804h-22.192l-1.353,7.488c-0.091,0.721-0.181,1.263-0.181,1.804c0,2.074,1.083,2.706,3.699,2.706
		h18.222c0.902,0,1.534,0.632,1.534,1.534v0.271l-1.985,11.005c-0.18,1.083-0.902,1.624-2.074,1.805
		c-3.519,0.451-9.021,1.082-17.772,1.082c-10.555,0-20.207-3.789-20.207-15.606c0-1.442,0.181-2.977,0.451-4.601l4.962-28.326
		c3.157-18.222,13.982-20.207,26.702-20.207c8.75,0,14.253,0.631,17.591,1.082c0.992,0.091,1.443,0.541,1.443,1.444V639.838z"/>
	<path clip-path="url(#SVGID_2_)" fill="#164194" d="M404.313,640.92l-1.984,11.276c-0.181,0.993-0.903,1.714-1.895,1.714h-0.18
		c-3.608-0.27-13.802-1.173-20.297-1.173c-2.526,0-5.143,0.813-5.143,3.789c0,1.263,0.903,2.076,3.97,3.879l11.005,6.495
		c6.495,3.79,9.022,8.751,9.022,15.066c0,16.868-14.164,23.725-29.499,23.725c-7.397,0-13.171-0.993-17.772-2.345
		c-0.811-0.271-1.533-0.723-1.533-1.534v-0.271l1.894-11.096c0.181-0.992,0.993-1.803,2.075-1.803h0.18
		c3.699,0.359,13.261,1.352,18.042,1.352c3.609,0,6.586-1.262,6.586-5.322c0-1.354-0.902-2.346-3.518-4.06l-11.638-7.668
		c-5.232-3.427-7.758-9.291-7.758-14.884c0-16.238,12.72-21.109,27.064-21.109c7.126,0,16.508,1.173,20.026,2.255
		c0.722,0.271,1.353,0.632,1.353,1.443V640.92z"/>
	<path clip-path="url(#SVGID_2_)" fill="#164194" d="M434.262,639.567l-11.186,63.509c-0.181,0.991-0.812,1.804-2.165,1.804h-14.795
		c-1.082,0-1.624-0.903-1.443-1.804l11.186-63.509c0.18-0.992,1.083-1.715,2.075-1.715h14.794
		C433.72,637.853,434.442,638.395,434.262,639.567"/>
	<path clip-path="url(#SVGID_2_)" fill="#164194" d="M532.409,640.92l-1.984,11.276c-0.181,0.993-0.902,1.714-1.895,1.714h-0.181
		c-3.608-0.27-13.802-1.173-20.297-1.173c-2.526,0-5.143,0.813-5.143,3.789c0,1.263,0.902,2.076,3.97,3.879l11.006,6.495
		c6.495,3.79,9.021,8.751,9.021,15.066c0,16.868-14.163,23.725-29.498,23.725c-7.397,0-13.171-0.993-17.771-2.345
		c-0.812-0.271-1.534-0.723-1.534-1.534v-0.271l1.894-11.096c0.181-0.992,0.993-1.803,2.075-1.803h0.18
		c3.699,0.359,13.261,1.352,18.043,1.352c3.608,0,6.585-1.262,6.585-5.322c0-1.354-0.902-2.346-3.519-4.06l-11.637-7.668
		c-5.232-3.427-7.757-9.291-7.757-14.884c0-16.238,12.719-21.109,27.062-21.109c7.127,0,16.509,1.173,20.027,2.255
		c0.721,0.271,1.353,0.632,1.353,1.443V640.92z"/>
	<path clip-path="url(#SVGID_2_)" fill="#164194" d="M585.993,639.838l-1.895,11.006c-0.181,0.991-1.173,1.805-2.165,1.805h-18.223
		c-3.247,0-4.51,1.082-5.142,4.51l-1.173,6.585h22.191c0.902,0,1.534,0.632,1.534,1.533v0.271l-1.895,10.645
		c-0.181,0.993-1.083,1.804-2.075,1.804h-22.191l-1.354,7.488c-0.09,0.721-0.18,1.263-0.18,1.804c0,2.074,1.082,2.706,3.698,2.706
		h18.223c0.902,0,1.533,0.632,1.533,1.534v0.271l-1.984,11.005c-0.181,1.083-0.902,1.624-2.075,1.805
		c-3.518,0.451-9.021,1.082-17.771,1.082c-10.554,0-20.207-3.789-20.207-15.606c0-1.442,0.181-2.977,0.451-4.601l4.962-28.326
		c3.157-18.222,13.982-20.207,26.702-20.207c8.75,0,14.253,0.631,17.591,1.082c0.992,0.091,1.443,0.541,1.443,1.444V639.838z"/>
	<path clip-path="url(#SVGID_2_)" fill="#164194" d="M652.298,639.657l-10.825,61.885c-0.361,1.804-2.165,3.338-3.969,3.338h-11.186
		c-1.624,0-2.617-0.723-3.339-2.437l-13.351-30.221c-0.271-0.63-0.542-0.721-0.813-0.721s-0.451,0.18-0.541,0.812l-5.412,30.762
		c-0.181,0.992-1.173,1.805-2.166,1.805h-13.531c-0.902,0-1.533-0.632-1.533-1.534v-0.271l10.825-61.885
		c0.361-1.804,2.165-3.338,3.969-3.338h11.006c1.714,0,2.436,1.083,3.157,2.617l13.712,31.123c0.271,0.63,0.361,0.811,0.632,0.811
		s0.541-0.09,0.631-0.811l5.594-31.936c0.18-0.991,1.173-1.805,2.165-1.805h13.531c0.902,0,1.443,0.632,1.443,1.444V639.657z"/>
	<path clip-path="url(#SVGID_2_)" fill="#164194" d="M705.973,704.88h-15.335c-0.902,0-1.534-0.813-1.534-1.714l-0.271-12.539
		h-16.058l-4.781,12.539c-0.36,0.901-1.173,1.714-2.074,1.714h-15.967c-0.813,0-1.264-0.452-1.264-1.173
		c0-0.182,0.09-0.451,0.181-0.723l21.831-55.208c3.518-8.932,10.645-10.734,19.215-10.734c8.569,0,15.064,1.803,15.426,10.734
		l2.346,55.208v0.092C707.688,704.067,706.965,704.88,705.973,704.88 M688.382,653.278c0-0.812,0-1.263-0.813-1.263
		c-0.812,0-0.901,0.451-1.172,1.263l-8.479,22.914h10.825L688.382,653.278z"/>
	<path clip-path="url(#SVGID_2_)" fill="#164194" d="M744.942,639.567l-11.187,63.509c-0.18,0.991-0.812,1.804-2.166,1.804h-14.794
		c-1.083,0-1.624-0.903-1.442-1.804l11.186-63.509c0.181-0.992,1.083-1.715,2.075-1.715h14.794
		C744.401,637.853,745.123,638.395,744.942,639.567"/>
	<path clip-path="url(#SVGID_2_)" fill="#164194" d="M818.372,639.567l-11.187,63.509c-0.18,0.991-0.812,1.804-2.166,1.804h-14.794
		c-1.083,0-1.624-0.903-1.442-1.804l11.186-63.509c0.181-0.992,1.083-1.715,2.075-1.715h14.794
		C817.831,637.853,818.553,638.395,818.372,639.567"/>
	<path clip-path="url(#SVGID_2_)" fill="#164194" d="M872.138,639.838l-1.896,11.006c-0.18,0.991-1.172,1.805-2.164,1.805h-18.223
		c-3.247,0-4.51,1.082-5.142,4.51l-1.173,6.585h22.191c0.902,0,1.534,0.632,1.534,1.533v0.271l-1.895,10.645
		c-0.181,0.993-1.083,1.804-2.075,1.804h-22.191l-1.354,7.488c-0.09,0.721-0.18,1.263-0.18,1.804c0,2.074,1.082,2.706,3.698,2.706
		h18.222c0.903,0,1.534,0.632,1.534,1.534v0.271l-1.984,11.005c-0.181,1.083-0.902,1.624-2.075,1.805
		c-3.518,0.451-9.021,1.082-17.771,1.082c-10.554,0-20.207-3.789-20.207-15.606c0-1.442,0.181-2.977,0.451-4.601l4.962-28.326
		c3.157-18.222,13.982-20.207,26.702-20.207c8.75,0,14.253,0.631,17.591,1.082c0.992,0.091,1.443,0.541,1.443,1.444V639.838z"/>
	<path clip-path="url(#SVGID_2_)" fill="#164194" d="M912.913,691.8l-1.984,11.005c-0.181,1.083-0.902,1.624-2.075,1.805
		c-3.428,0.63-9.472,1.082-14.252,1.082c-10.195,0-20.209-3.338-20.209-15.516c0-1.443,0.182-2.978,0.452-4.691l8.028-45.827
		c0.181-0.992,1.263-1.804,2.255-1.804h14.704c0.902,0,1.443,0.632,1.443,1.442v0.361l-8.028,45.827
		c-0.09,0.631-0.181,1.172-0.181,1.714c0,2.075,1.083,2.796,3.699,2.796h14.613c0.902,0,1.534,0.632,1.534,1.534V691.8z"/>
	<path clip-path="url(#SVGID_2_)" fill="#164194" d="M465.865,637.046l-12.584,70.646c-0.199,1.005-1.005,1.897-2.01,1.897h-1.005
		c-0.911,0-1.413-0.702-1.413-1.499v-0.398l12.583-70.646c0.2-1.005,1.005-1.906,2.011-1.906h1.005c0.91,0,1.413,0.711,1.413,1.508
		V637.046z"/>
	<path clip-path="url(#SVGID_2_)" fill="#164194" d="M778.228,637.046l-12.584,70.646c-0.199,1.005-1.006,1.897-2.011,1.897h-1.005
		c-0.911,0-1.413-0.702-1.413-1.499v-0.398l12.583-70.646c0.2-1.005,1.006-1.906,2.012-1.906h1.005c0.91,0,1.413,0.711,1.413,1.508
		V637.046z"/>
	<path clip-path="url(#SVGID_2_)" fill="#164194" d="M190.065,13.417l-3.94,22.253c-0.354,1.965-1.782,3.382-3.746,3.382h-0.365
		c-7.15-0.537-27.363-2.308-40.234-2.308c-5.002,0-10.198,1.599-10.198,7.471c0,2.491,1.793,4.101,7.868,7.654l21.824,12.817
		c12.871,7.482,17.884,17.272,17.884,29.725c0,33.299-28.082,46.825-58.483,46.825c-14.663,0-26.106-1.954-35.231-4.627
		c-1.61-0.537-3.038-1.428-3.038-3.027v-0.537l3.757-21.899c0.354-1.953,1.965-3.553,4.112-3.553h0.365
		c7.332,0.709,26.278,2.673,35.757,2.673c7.149,0,13.053-2.501,13.053-10.509c0-2.673-1.781-4.627-6.966-8.008l-23.069-15.136
		c-10.37-6.763-15.383-18.335-15.383-29.371c0-32.043,25.216-41.661,53.652-41.661c14.127,0,32.719,2.319,39.697,4.455
		c1.428,0.537,2.684,1.245,2.684,2.844V13.417z"/>
	<path clip-path="url(#SVGID_2_)" fill="#164194" d="M233.509,36.024c1.965,0,3.746,0.537,3.21,3.736l-16.993,95.957
		c-0.355,1.954-1.246,3.919-4.649,3.919h-26.643c-1.965,0-3.757-0.72-3.21-3.919l16.983-95.957c0.354-1.954,1.61-3.736,4.648-3.736
		H233.509z M240.476,1.662c1.964,0,3.757,0.537,3.22,3.564l-3.038,17.444c-0.365,1.954-1.084,3.564-4.659,3.564h-28.253
		c-3.393,0-3.747-1.61-3.393-3.564l3.039-17.444c0.354-1.964,1.61-3.564,4.83-3.564H240.476z"/>
	<path clip-path="url(#SVGID_2_)" fill="#164194" d="M321.651,61.658c-0.365,2.136-1.256,3.918-4.112,3.564
		c-5.185-0.719-22.177-2.845-30.228-2.845c-3.564,0-7.332,0.355-7.332,3.382c0,2.308,1.073,3.381,6.44,6.58l11.272,6.591
		c15.2,9.071,18.775,17.809,18.775,27.235c0,25.988-21.824,35.07-46.675,35.07c-12.699,0-25.57-1.954-33.256-4.273
		c-2.329-0.708-3.048-1.953-2.694-3.918l3.22-18.335c0.365-2.673,1.439-4.272,5.013-3.735c10.37,1.427,24.497,2.844,30.401,2.844
		c4.294,0,9.296-0.708,9.296-6.043c0-1.965-0.891-3.039-4.294-4.992l-14.481-8.545c-13.236-7.836-17.884-16.027-17.884-26.525
		c0-26.526,21.641-33.289,44.528-33.289c13.773,0,24.497,2.136,32.548,4.444c2.147,0.719,3.22,1.428,2.866,3.918L321.651,61.658z"/>
	<path clip-path="url(#SVGID_2_)" fill="#164194" d="M398.169,36.023c2.866,0,4.111,0.719,3.574,3.553l-3.209,18.163
		c-0.365,1.965-1.084,3.564-4.122,3.564h-13.591l-8.587,47.888c-0.354,1.6-0.537,2.845-0.537,3.736c0,2.318,1.073,3.027,4.294,3.027
		h8.233c1.965,0,3.575,0.719,3.21,3.381l-2.855,16.736c-0.355,1.964-1.428,3.027-4.477,3.564c-1.427,0.172-9.65,1.599-16.273,1.599
		c-15.555,0-26.644-5.882-26.644-23.144c0-2.845,0.365-5.872,0.902-9.264l8.405-47.523l-11.443-2.672
		c-1.976-0.537-3.586-1.074-3.049-3.919l2.684-14.953c0.365-1.954,0.901-3.736,4.465-3.736h11.809l2.501-14.417
		c0.365-1.964,2.329-3.392,4.476-3.746l27.363-4.627c2.501-0.354,3.746,0.891,3.392,3.382l-3.392,19.408H398.169z"/>
	<path clip-path="url(#SVGID_2_)" fill="#164194" d="M493.837,82.838l-1.793,10.681c-0.354,2.319-2.329,3.918-4.476,3.918h-55.606
		c-0.365,2.137-0.537,3.918-0.537,5.518c0,8.899,5.722,10.144,14.664,10.144c9.468,0,27.534-0.708,34.329-1.417h0.72
		c1.61,0,2.683,0.709,2.683,2.308v0.709l-2.866,16.027c-0.537,2.844-1.427,4.1-4.466,4.991c-11.99,3.736-24.142,5.518-39.16,5.518
		c-19.859,0-39.525-12.28-39.525-37.572c0-2.844,0.172-5.872,0.708-9.081l1.976-11.744c5.893-35.253,26.278-48.424,56.142-48.424
		c25.935,0,38.098,17.089,38.098,38.28C494.728,76.075,494.374,79.456,493.837,82.838 M451.628,60.939
		c-10.016,0-14.299,7.482-16.457,17.627h26.472c0.537-2.491,0.891-4.981,0.891-7.128C462.534,65.212,459.679,60.939,451.628,60.939"
		/>
	<path clip-path="url(#SVGID_2_)" fill="#164194" d="M648.32,79.639l-9.833,56.079c-0.365,1.953-2.33,3.918-4.477,3.918h-26.825
		c-1.966,0-3.039-1.6-3.039-3.199v-0.719l10.734-60.706c0.355-1.964,0.526-3.563,0.526-5.163c0-3.746-1.427-6.054-7.503-6.054
		c-2.685,0-6.979,0.536-11.272,1.964c-0.172,3.199-0.525,5.861-1.062,9.253l-10.735,60.706c-0.365,1.953-2.146,3.918-4.294,3.918
		h-26.998c-1.975,0-3.049-1.6-3.049-3.199v-0.719l10.735-60.706c0.364-1.781,0.719-3.735,0.719-5.345
		c0-3.382-1.256-5.872-6.441-5.872c-3.402,0-8.051,1.427-11.979,3.199l-12.162,68.724c-0.354,1.953-2.147,3.918-4.294,3.918h-26.998
		c-1.975,0-3.22-1.6-3.22-3.382v-0.536l17.166-96.141c0.364-1.953,2.146-3.553,4.11-3.553h24.143c1.965,0,3.038,1.245,3.038,3.027
		v0.526l-0.536,4.809c8.051-8.362,16.993-9.961,26.471-9.961c8.588,0,16.092,3.918,20.386,9.435
		c10.37-7.299,16.811-9.435,26.473-9.435c20.911,0,32.182,13.708,32.182,29.198C650.284,68.958,649.211,74.476,648.32,79.639"/>
	<path clip-path="url(#SVGID_2_)" fill="#164194" d="M759.886,44.569l-16.102,91.514c-0.354,1.953-1.793,3.553-3.757,3.553h-22.351
		c-1.964,0-3.22-1.246-3.22-3.027v-0.526l0.719-5.518c-9.479,7.3-17.529,10.67-27.545,10.67c-17.347,0-31.109-12.452-31.109-34.716
		c0-3.199,0.537-7.289,1.073-10.316l3.038-17.991c5.722-33.997,27.363-43.787,54.715-43.787c12.699,0,26.472,1.964,39.172,4.444
		c3.392,0.719,5.539,1.256,5.539,4.283C760.059,43.506,760.059,44.032,759.886,44.569 M711.419,62.731
		c-10.016,0-14.48,3.918-16.993,18.163l-3.392,19.044c-0.365,1.599-0.365,3.209-0.365,4.455c0,6.408,3.22,8.179,8.233,8.179
		c5.368,0,11.798-2.662,15.372-4.798l7.88-44.324C719.105,63.085,714.993,62.731,711.419,62.731"/>
</g>
</svg>
